  0
SECTION
  2
HEADER
  9
$ANGBASE
  50
0.0
  9
$ANGDIR
  70
1
  9
$MEASUREMENT
  70
1
  0
ENDSEC
  0
SECTION
  2
TABLES
  0
TABLE
  2
LTYPE
  70
4
  0
LTYPE
  5
40F
  2
CONTINUOUS
  70
0
  3
Solid line
  72
65
  73
0
  40
0.0
  0
LTYPE
  5
410
  2
DASHDOT
 70
0
  3
Dash Dot ____ _ ____ _
 72
65
 73
4
 40
2.0
 49
1.25
 49
-0.25
 49
0.25
 49
-0.25
  0
LTYPE
  5
411
  2
DASHED
 70
0
  3
Dashed __ __ __ __ __
 72
65
 73
2
 40
0.75
 49
0.5
 49
-0.25
  0
LTYPE
  5
43B
  2
DOTTED
 70
0
  3
Dotted .  .  .  .
 72
65
 73
2
 40
0.2
 49
0.0
 49
-0.2
  0
ENDTAB
  0
TABLE
  2
STYLE
  70
4
  0
STYLE
  2
KICAD
  70
0
  40
0
  41
1
  42
1
  50
0
  71
0
  3
isocp.shx
  0
STYLE
  2
KICADB
  70
0
  40
0
  41
1
  42
1
  50
0
  71
0
  3
isocp.shx
  0
STYLE
  2
KICADI
  70
0
  40
0
  41
1
  42
1
  50
15
  71
0
  3
isocp.shx
  0
STYLE
  2
KICADBI
  70
0
  40
0
  41
1
  42
1
  50
15
  71
0
  3
isocp.shx
  0
ENDTAB
  0
TABLE
  2
LAYER
  70
1
  0
LAYER
  2
BLACK
  70
0
  62
7
  6
CONTINUOUS
  0
ENDTAB
  0
ENDSEC
  0
SECTION
  2
ENTITIES
0
LINE
8
BLACK
6
CONTINUOUS
10
274.4388319999999908
20
9.2273359999999993
11
274.4388319999999908
21
-83.0460240000000027
0
LINE
8
BLACK
6
CONTINUOUS
10
151.8045599999999808
20
-83.0460240000000027
11
133.9451999999999998
21
-83.0460240000000027
0
LINE
8
BLACK
6
CONTINUOUS
10
95.8452319999999958
20
-66.0796320000000037
11
89.5944559999999939
21
-66.0796320000000037
0
LINE
8
BLACK
6
CONTINUOUS
10
158.0553359999999827
20
-83.0460240000000027
11
274.4388319999999908
21
-83.0460240000000027
0
LINE
8
BLACK
6
CONTINUOUS
10
95.8452319999999958
20
-83.0460240000000027
11
95.8452319999999958
21
-66.0796320000000037
0
LINE
8
BLACK
6
CONTINUOUS
10
95.8452319999999958
20
-83.0460240000000027
11
113.704591999999991
21
-83.0460240000000027
0
LINE
8
BLACK
6
CONTINUOUS
10
-7.7390559999999997
20
-83.0460240000000027
11
89.5944559999999939
21
-83.0460240000000027
0
LINE
8
BLACK
6
CONTINUOUS
10
133.9451999999999998
20
-66.0796320000000037
11
133.9451999999999998
21
-83.0460240000000027
0
LINE
8
BLACK
6
CONTINUOUS
10
151.8045599999999808
20
-83.0460240000000027
11
151.8045599999999808
21
-66.0796320000000037
0
LINE
8
BLACK
6
CONTINUOUS
10
-7.7390559999999997
20
9.2273359999999993
11
274.4388319999999908
21
9.2273359999999993
0
LINE
8
BLACK
6
CONTINUOUS
10
113.704591999999991
20
-66.0796320000000037
11
133.9451999999999998
21
-66.0796320000000037
0
LINE
8
BLACK
6
CONTINUOUS
10
113.704591999999991
20
-83.0460240000000027
11
113.704591999999991
21
-66.0796320000000037
0
LINE
8
BLACK
6
CONTINUOUS
10
158.0553359999999827
20
-66.0796320000000037
11
158.0553359999999827
21
-83.0460240000000027
0
LINE
8
BLACK
6
CONTINUOUS
10
89.5944559999999939
20
-66.0796320000000037
11
89.5944559999999939
21
-83.0460240000000027
0
LINE
8
BLACK
6
CONTINUOUS
10
-7.7390559999999997
20
9.2273359999999993
11
-7.7390559999999997
21
-83.0460240000000027
0
LINE
8
BLACK
6
CONTINUOUS
10
151.8045599999999808
20
-66.0796320000000037
11
158.0553359999999827
21
-66.0796320000000037
0
LINE
8
BLACK
6
CONTINUOUS
10
88.2249999999999943
20
6.3192829999999995
11
88.2249999999999943
21
-6.3192829999999995
0
LINE
8
BLACK
6
CONTINUOUS
10
88.9307179999999988
20
-7.0249989999999993
11
101.5692829999999987
21
-7.0249999999999995
0
LINE
8
BLACK
6
CONTINUOUS
10
101.5692829999999987
20
7.0249999999999995
11
88.9307170000000013
21
7.0249999999999995
0
LINE
8
BLACK
6
CONTINUOUS
10
102.274998999999994
20
-6.3192819999999994
11
102.2749999999999915
21
6.3192829999999995
0
ARC
8
BLACK
10
88.5999999999999943
20
6.6499999999999995
40
0.4999993955236346
50
-311.40954357
51
-138.59045643
0
ARC
8
BLACK
10
88.5999999999999943
20
-6.6499999999999995
40
0.4999993955236346
50
-221.40954357
51
-48.59045643
0
ARC
8
BLACK
10
101.8999999999999915
20
6.6499999999999995
40
0.4999993955236346
50
-41.40954357
51
131.40954357
0
ARC
8
BLACK
10
101.8999999999999915
20
-6.6499999999999995
40
0.4999993955236346
50
-131.40954357
51
41.40954357
0
LINE
8
BLACK
6
CONTINUOUS
10
254.9125009999999918
20
-12.7307179999999995
11
254.9124999999999943
21
-25.3692829999999994
0
LINE
8
BLACK
6
CONTINUOUS
10
255.6182169999999871
20
-26.0749999999999993
11
268.2567829999999844
21
-26.0749999999999993
0
LINE
8
BLACK
6
CONTINUOUS
10
268.256781999999987
20
-12.0250009999999996
11
255.6182169999999871
21
-12.0249999999999986
0
LINE
8
BLACK
6
CONTINUOUS
10
268.9624999999999773
20
-25.3692829999999994
11
268.9624999999999773
21
-12.7307170000000003
0
ARC
8
BLACK
10
255.2874999999999943
20
-12.3999999999999986
40
0.4999993955236346
50
-311.40954357
51
-138.59045643
0
ARC
8
BLACK
10
255.2874999999999943
20
-25.6999999999999993
40
0.4999993955236346
50
-221.40954357
51
-48.59045643
0
ARC
8
BLACK
10
268.5874999999999773
20
-12.3999999999999986
40
0.4999993955236346
50
-41.40954357
51
131.40954357
0
ARC
8
BLACK
10
268.5874999999999773
20
-25.6999999999999993
40
0.4999993955236346
50
-131.40954357
51
41.40954357
0
LINE
8
BLACK
6
CONTINUOUS
10
216.8125
20
-31.7807169999999992
11
216.8125
21
-44.4192830000000001
0
LINE
8
BLACK
6
CONTINUOUS
10
217.5182179999999903
20
-45.1249989999999954
11
230.1567829999999901
21
-45.125
0
LINE
8
BLACK
6
CONTINUOUS
10
230.1567829999999901
20
-31.0749999999999993
11
217.5182169999999928
21
-31.0749999999999993
0
LINE
8
BLACK
6
CONTINUOUS
10
230.8624989999999855
20
-44.4192819999999955
11
230.8624999999999829
21
-31.7807169999999992
0
ARC
8
BLACK
10
217.1875
20
-31.4499999999999993
40
0.4999993955236346
50
-311.40954357
51
-138.59045643
0
ARC
8
BLACK
10
217.1875
20
-44.75
40
0.4999993955236346
50
-221.40954357
51
-48.59045643
0
ARC
8
BLACK
10
230.4874999999999829
20
-31.4499999999999993
40
0.4999993955236346
50
-41.40954357
51
131.40954357
0
ARC
8
BLACK
10
230.4874999999999829
20
-44.75
40
0.4999993955236346
50
-131.40954357
51
41.40954357
0
LINE
8
BLACK
6
CONTINUOUS
10
178.7125000000000057
20
-31.7807169999999992
11
178.7125000000000057
21
-44.4192830000000001
0
LINE
8
BLACK
6
CONTINUOUS
10
179.418217999999996
20
-45.1249989999999954
11
192.0567829999999958
21
-45.125
0
LINE
8
BLACK
6
CONTINUOUS
10
192.0567829999999958
20
-31.0749999999999993
11
179.4182169999999985
21
-31.0749999999999993
0
LINE
8
BLACK
6
CONTINUOUS
10
192.7624989999999912
20
-44.4192819999999955
11
192.7624999999999886
21
-31.7807169999999992
0
ARC
8
BLACK
10
179.0875000000000057
20
-31.4499999999999993
40
0.4999993955236346
50
-311.40954357
51
-138.59045643
0
ARC
8
BLACK
10
179.0875000000000057
20
-44.75
40
0.4999993955236346
50
-221.40954357
51
-48.59045643
0
ARC
8
BLACK
10
192.3874999999999886
20
-31.4499999999999993
40
0.4999993955236346
50
-41.40954357
51
131.40954357
0
ARC
8
BLACK
10
192.3874999999999886
20
-44.75
40
0.4999993955236346
50
-131.40954357
51
41.40954357
0
LINE
8
BLACK
6
CONTINUOUS
10
21.5500009999999982
20
-12.7307179999999995
11
21.5500000000000007
21
-25.3692829999999994
0
LINE
8
BLACK
6
CONTINUOUS
10
22.2557170000000006
20
-26.0749999999999993
11
34.8942830000000015
21
-26.0749999999999993
0
LINE
8
BLACK
6
CONTINUOUS
10
34.8942819999999969
20
-12.0250009999999996
11
22.2557170000000006
21
-12.0249999999999986
0
LINE
8
BLACK
6
CONTINUOUS
10
35.6000000000000014
20
-25.3692829999999994
11
35.6000000000000014
21
-12.7307170000000003
0
ARC
8
BLACK
10
21.9250000000000007
20
-12.3999999999999986
40
0.4999993955236346
50
-311.40954357
51
-138.59045643
0
ARC
8
BLACK
10
21.9250000000000007
20
-25.6999999999999993
40
0.4999993955236346
50
-221.40954357
51
-48.59045643
0
ARC
8
BLACK
10
35.2250000000000014
20
-12.3999999999999986
40
0.4999993955236346
50
-41.40954357
51
131.40954357
0
ARC
8
BLACK
10
35.2250000000000014
20
-25.6999999999999993
40
0.4999993955236346
50
-131.40954357
51
41.40954357
0
LINE
8
BLACK
6
CONTINUOUS
10
-2.262499
20
-12.7307179999999995
11
-2.2624999999999997
21
-25.3692829999999994
0
LINE
8
BLACK
6
CONTINUOUS
10
-1.556783
20
-26.0749999999999993
11
11.0817829999999997
21
-26.0749999999999993
0
LINE
8
BLACK
6
CONTINUOUS
10
11.0817819999999987
20
-12.0250009999999996
11
-1.556783
21
-12.0249999999999986
0
LINE
8
BLACK
6
CONTINUOUS
10
11.7874999999999996
20
-25.3692829999999994
11
11.7874999999999996
21
-12.7307170000000003
0
ARC
8
BLACK
10
-1.8875
20
-12.3999999999999986
40
0.4999993955236346
50
-311.40954357
51
-138.59045643
0
ARC
8
BLACK
10
-1.8875
20
-25.6999999999999993
40
0.4999993955236346
50
-221.40954357
51
-48.59045643
0
ARC
8
BLACK
10
11.4124999999999996
20
-12.3999999999999986
40
0.4999993955236346
50
-41.40954357
51
131.40954357
0
ARC
8
BLACK
10
11.4124999999999996
20
-25.6999999999999993
40
0.4999993955236346
50
-131.40954357
51
41.40954357
0
LINE
8
BLACK
6
CONTINUOUS
10
40.6000009999999989
20
-12.7307179999999995
11
40.6000000000000014
21
-25.3692829999999994
0
LINE
8
BLACK
6
CONTINUOUS
10
41.3057170000000013
20
-26.0749999999999993
11
53.9442829999999987
21
-26.0749999999999993
0
LINE
8
BLACK
6
CONTINUOUS
10
53.9442819999999941
20
-12.0250009999999996
11
41.3057170000000013
21
-12.0249999999999986
0
LINE
8
BLACK
6
CONTINUOUS
10
54.6499999999999986
20
-25.3692829999999994
11
54.6499999999999986
21
-12.7307170000000003
0
ARC
8
BLACK
10
40.9750000000000014
20
-12.3999999999999986
40
0.4999993955236346
50
-311.40954357
51
-138.59045643
0
ARC
8
BLACK
10
40.9750000000000014
20
-25.6999999999999993
40
0.4999993955236346
50
-221.40954357
51
-48.59045643
0
ARC
8
BLACK
10
54.2749999999999986
20
-12.3999999999999986
40
0.4999993955236346
50
-41.40954357
51
131.40954357
0
ARC
8
BLACK
10
54.2749999999999986
20
-25.6999999999999993
40
0.4999993955236346
50
-131.40954357
51
41.40954357
0
LINE
8
BLACK
6
CONTINUOUS
10
185.8562509999999861
20
-69.8807180000000017
11
185.8562499999999886
21
-82.5192830000000015
0
LINE
8
BLACK
6
CONTINUOUS
10
186.5619669999999815
20
-83.2249999999999943
11
199.2005329999999788
21
-83.2249999999999943
0
LINE
8
BLACK
6
CONTINUOUS
10
199.2005319999999813
20
-69.1750009999999946
11
186.5619669999999815
21
-69.1749999999999972
0
LINE
8
BLACK
6
CONTINUOUS
10
199.90625
20
-82.5192830000000015
11
199.90625
21
-69.88071699999999
0
ARC
8
BLACK
10
186.2312499999999886
20
-69.5499999999999972
40
0.4999993955236346
50
-311.40954357
51
-138.59045643
0
ARC
8
BLACK
10
186.2312499999999886
20
-82.8499999999999943
40
0.4999993955236346
50
-221.40954357
51
-48.59045643
0
ARC
8
BLACK
10
199.53125
20
-69.5499999999999972
40
0.4999993955236346
50
-41.40954357
51
131.40954357
0
ARC
8
BLACK
10
199.53125
20
-82.8499999999999943
40
0.4999993955236346
50
-131.40954357
51
41.40954357
0
LINE
8
BLACK
6
CONTINUOUS
10
131.0875000000000057
20
-50.8307169999999999
11
131.0875000000000057
21
-63.4692829999999972
0
LINE
8
BLACK
6
CONTINUOUS
10
131.793217999999996
20
-64.1749989999999997
11
144.4317829999999958
21
-64.1749999999999972
0
LINE
8
BLACK
6
CONTINUOUS
10
144.4317829999999958
20
-50.125
11
131.7932169999999985
21
-50.125
0
LINE
8
BLACK
6
CONTINUOUS
10
145.1374989999999912
20
-63.4692819999999998
11
145.1374999999999886
21
-50.8307169999999999
0
ARC
8
BLACK
10
131.4625000000000057
20
-50.5
40
0.4999993955236346
50
-311.40954357
51
-138.59045643
0
ARC
8
BLACK
10
131.4625000000000057
20
-63.7999999999999972
40
0.4999993955236346
50
-221.40954357
51
-48.59045643
0
ARC
8
BLACK
10
144.7624999999999886
20
-50.5
40
0.4999993955236346
50
-41.40954357
51
131.40954357
0
ARC
8
BLACK
10
144.7624999999999886
20
-63.7999999999999972
40
0.4999993955236346
50
-131.40954357
51
41.40954357
0
LINE
8
BLACK
6
CONTINUOUS
10
31.0749999999999993
20
6.3192829999999995
11
31.0749999999999993
21
-6.3192829999999995
0
LINE
8
BLACK
6
CONTINUOUS
10
31.7807180000000002
20
-7.0249989999999993
11
44.4192830000000001
21
-7.0249999999999995
0
LINE
8
BLACK
6
CONTINUOUS
10
44.4192830000000001
20
7.0249999999999995
11
31.7807169999999992
21
7.0249999999999995
0
LINE
8
BLACK
6
CONTINUOUS
10
45.1249989999999954
20
-6.3192819999999994
11
45.125
21
6.3192829999999995
0
ARC
8
BLACK
10
31.4499999999999993
20
6.6499999999999995
40
0.4999993955236346
50
-311.40954357
51
-138.59045643
0
ARC
8
BLACK
10
31.4499999999999993
20
-6.6499999999999995
40
0.4999993955236346
50
-221.40954357
51
-48.59045643
0
ARC
8
BLACK
10
44.75
20
6.6499999999999995
40
0.4999993955236346
50
-41.40954357
51
131.40954357
0
ARC
8
BLACK
10
44.75
20
-6.6499999999999995
40
0.4999993955236346
50
-131.40954357
51
41.40954357
0
LINE
8
BLACK
6
CONTINUOUS
10
12.0249999999999986
20
6.3192829999999995
11
12.0249999999999986
21
-6.3192829999999995
0
LINE
8
BLACK
6
CONTINUOUS
10
12.7307179999999995
20
-7.0249989999999993
11
25.3692829999999994
21
-7.0249999999999995
0
LINE
8
BLACK
6
CONTINUOUS
10
25.3692829999999994
20
7.0249999999999995
11
12.7307170000000003
21
7.0249999999999995
0
LINE
8
BLACK
6
CONTINUOUS
10
26.0749989999999983
20
-6.3192819999999994
11
26.0749999999999993
21
6.3192829999999995
0
ARC
8
BLACK
10
12.3999999999999986
20
6.6499999999999995
40
0.4999993955236346
50
-311.40954357
51
-138.59045643
0
ARC
8
BLACK
10
12.3999999999999986
20
-6.6499999999999995
40
0.4999993955236346
50
-221.40954357
51
-48.59045643
0
ARC
8
BLACK
10
25.6999999999999993
20
6.6499999999999995
40
0.4999993955236346
50
-41.40954357
51
131.40954357
0
ARC
8
BLACK
10
25.6999999999999993
20
-6.6499999999999995
40
0.4999993955236346
50
-131.40954357
51
41.40954357
0
LINE
8
BLACK
6
CONTINUOUS
10
69.1750009999999946
20
-69.8807180000000017
11
69.1749999999999972
21
-82.5192830000000015
0
LINE
8
BLACK
6
CONTINUOUS
10
69.88071699999999
20
-83.2249999999999943
11
82.5192830000000015
21
-83.2249999999999943
0
LINE
8
BLACK
6
CONTINUOUS
10
82.5192819999999898
20
-69.1750009999999946
11
69.88071699999999
21
-69.1749999999999972
0
LINE
8
BLACK
6
CONTINUOUS
10
83.2249999999999943
20
-82.5192830000000015
11
83.2249999999999943
21
-69.88071699999999
0
ARC
8
BLACK
10
69.5499999999999972
20
-69.5499999999999972
40
0.4999993955236346
50
-311.40954357
51
-138.59045643
0
ARC
8
BLACK
10
69.5499999999999972
20
-82.8499999999999943
40
0.4999993955236346
50
-221.40954357
51
-48.59045643
0
ARC
8
BLACK
10
82.8499999999999943
20
-69.5499999999999972
40
0.4999993955236346
50
-41.40954357
51
131.40954357
0
ARC
8
BLACK
10
82.8499999999999943
20
-82.8499999999999943
40
0.4999993955236346
50
-131.40954357
51
41.40954357
0
LINE
8
BLACK
6
CONTINUOUS
10
50.125
20
6.3192829999999995
11
50.125
21
-6.3192829999999995
0
LINE
8
BLACK
6
CONTINUOUS
10
50.8307179999999974
20
-7.0249989999999993
11
63.4692829999999972
21
-7.0249999999999995
0
LINE
8
BLACK
6
CONTINUOUS
10
63.4692829999999972
20
7.0249999999999995
11
50.8307169999999999
21
7.0249999999999995
0
LINE
8
BLACK
6
CONTINUOUS
10
64.1749989999999997
20
-6.3192819999999994
11
64.1749999999999972
21
6.3192829999999995
0
ARC
8
BLACK
10
50.5
20
6.6499999999999995
40
0.4999993955236346
50
-311.40954357
51
-138.59045643
0
ARC
8
BLACK
10
50.5
20
-6.6499999999999995
40
0.4999993955236346
50
-221.40954357
51
-48.59045643
0
ARC
8
BLACK
10
63.7999999999999972
20
6.6499999999999995
40
0.4999993955236346
50
-41.40954357
51
131.40954357
0
ARC
8
BLACK
10
63.7999999999999972
20
-6.6499999999999995
40
0.4999993955236346
50
-131.40954357
51
41.40954357
0
LINE
8
BLACK
6
CONTINUOUS
10
154.9000010000000032
20
-12.7307179999999995
11
154.9000000000000057
21
-25.3692829999999994
0
LINE
8
BLACK
6
CONTINUOUS
10
155.6057169999999985
20
-26.0749999999999993
11
168.2442829999999958
21
-26.0749999999999993
0
LINE
8
BLACK
6
CONTINUOUS
10
168.2442819999999983
20
-12.0250009999999996
11
155.6057169999999985
21
-12.0249999999999986
0
LINE
8
BLACK
6
CONTINUOUS
10
168.9499999999999886
20
-25.3692829999999994
11
168.9499999999999886
21
-12.7307170000000003
0
ARC
8
BLACK
10
155.2750000000000057
20
-12.3999999999999986
40
0.4999993955236346
50
-311.40954357
51
-138.59045643
0
ARC
8
BLACK
10
155.2750000000000057
20
-25.6999999999999993
40
0.4999993955236346
50
-221.40954357
51
-48.59045643
0
ARC
8
BLACK
10
168.5749999999999886
20
-12.3999999999999986
40
0.4999993955236346
50
-41.40954357
51
131.40954357
0
ARC
8
BLACK
10
168.5749999999999886
20
-25.6999999999999993
40
0.4999993955236346
50
-131.40954357
51
41.40954357
0
LINE
8
BLACK
6
CONTINUOUS
10
0.11875
20
-31.7807490000000001
11
0.11875
21
-44.4193149999999974
0
LINE
8
BLACK
6
CONTINUOUS
10
0.824468
20
-45.1250309999999999
11
13.4630329999999994
21
-45.1250319999999974
0
LINE
8
BLACK
6
CONTINUOUS
10
13.4630329999999994
20
-31.0750320000000002
11
0.8244669999999999
21
-31.0750320000000002
0
LINE
8
BLACK
6
CONTINUOUS
10
14.168749
20
-44.419314
11
14.1687499999999993
21
-31.7807490000000001
0
ARC
8
BLACK
10
0.49375
20
-31.4500320000000002
40
0.4999993955236346
50
-311.40954357
51
-138.59045643
0
ARC
8
BLACK
10
0.49375
20
-44.7500319999999974
40
0.4999993955236346
50
-221.40954357
51
-48.59045643
0
ARC
8
BLACK
10
13.7937499999999993
20
-31.4500320000000002
40
0.4999993955236346
50
-41.40954357
51
131.40954357
0
ARC
8
BLACK
10
13.7937499999999993
20
-44.7500319999999974
40
0.4999993955236346
50
-131.40954357
51
41.40954357
0
LINE
8
BLACK
6
CONTINUOUS
10
47.7437509999999961
20
-69.8807180000000017
11
47.7437499999999986
21
-82.5192830000000015
0
LINE
8
BLACK
6
CONTINUOUS
10
48.4494669999999985
20
-83.2249999999999943
11
61.0880329999999958
21
-83.2249999999999943
0
LINE
8
BLACK
6
CONTINUOUS
10
61.0880319999999983
20
-69.1750009999999946
11
48.4494669999999985
21
-69.1749999999999972
0
LINE
8
BLACK
6
CONTINUOUS
10
61.7937499999999957
20
-82.5192830000000015
11
61.7937499999999957
21
-69.88071699999999
0
ARC
8
BLACK
10
48.1187499999999986
20
-69.5499999999999972
40
0.4999993955236346
50
-311.40954357
51
-138.59045643
0
ARC
8
BLACK
10
48.1187499999999986
20
-82.8499999999999943
40
0.4999993955236346
50
-221.40954357
51
-48.59045643
0
ARC
8
BLACK
10
61.4187499999999957
20
-69.5499999999999972
40
0.4999993955236346
50
-41.40954357
51
131.40954357
0
ARC
8
BLACK
10
61.4187499999999957
20
-82.8499999999999943
40
0.4999993955236346
50
-131.40954357
51
41.40954357
0
LINE
8
BLACK
6
CONTINUOUS
10
91.9249999999999972
20
-68.2999999999999972
11
91.9249999999999972
21
-69.3419999999999987
0
LINE
8
BLACK
6
CONTINUOUS
10
93.625
20
-68.2999999999999972
11
93.625
21
-69.3250000000000028
0
LINE
8
BLACK
6
CONTINUOUS
10
95.4249999999999972
20
-76.2000000000000028
11
97.75
21
-76.2000000000000028
0
LINE
8
BLACK
6
CONTINUOUS
10
95.5
20
-74.2000000000000028
11
97.75
21
-74.2000000000000028
0
LINE
8
BLACK
6
CONTINUOUS
10
97.75
20
-69.88071699999999
11
97.75
21
-74.2000000000000028
0
LINE
8
BLACK
6
CONTINUOUS
10
97.75
20
-82.5192819999999898
11
97.75
21
-76.2000000000000028
0
LINE
8
BLACK
6
CONTINUOUS
10
98.4557179999999903
20
-83.2249989999999968
11
111.0942829999999901
21
-83.2249999999999943
0
LINE
8
BLACK
6
CONTINUOUS
10
111.0942829999999901
20
-69.1749999999999972
11
98.4557169999999928
21
-69.1749999999999972
0
LINE
8
BLACK
6
CONTINUOUS
10
111.7999989999999997
20
-82.5192819999999898
11
111.7999999999999972
21
-69.88071699999999
0
LINE
8
BLACK
6
CONTINUOUS
10
114.0499999999999972
20
-74.1999989999999912
11
111.7999999999999972
21
-74.1999989999999912
0
LINE
8
BLACK
6
CONTINUOUS
10
114.125
20
-76.1999989999999912
11
111.7999999999999972
21
-76.1999989999999912
0
LINE
8
BLACK
6
CONTINUOUS
10
115.9249999999999972
20
-68.2999989999999997
11
115.9249999999999972
21
-69.3249989999999912
0
LINE
8
BLACK
6
CONTINUOUS
10
117.625
20
-68.2999989999999997
11
117.625
21
-69.3419990000000013
0
LINE
8
BLACK
6
CONTINUOUS
10
95.4249999999999972
20
-81.3499999999999943
11
90.125
21
-81.3499999999999943
0
LINE
8
BLACK
6
CONTINUOUS
10
90.125
20
-81.3499999999999943
11
90.125
21
-69.5499999999999972
0
LINE
8
BLACK
6
CONTINUOUS
10
90.125
20
-69.5499999999999972
11
95.4249999999999972
21
-69.5499999999999972
0
LINE
8
BLACK
6
CONTINUOUS
10
95.4249999999999972
20
-69.5499999999999972
11
95.4249999999999972
21
-81.3499999999999943
0
LINE
8
BLACK
6
CONTINUOUS
10
95.7999999999999972
20
-81.7249999999999943
11
89.75
21
-81.7249999999999943
0
LINE
8
BLACK
6
CONTINUOUS
10
89.75
20
-81.7249999999999943
11
89.75
21
-69.1749999999999972
0
LINE
8
BLACK
6
CONTINUOUS
10
89.75
20
-69.1749999999999972
11
95.7999999999999972
21
-69.1749999999999972
0
LINE
8
BLACK
6
CONTINUOUS
10
95.7999999999999972
20
-69.1749999999999972
11
95.7999999999999972
21
-81.7249999999999943
0
LINE
8
BLACK
6
CONTINUOUS
10
111.4249999999999972
20
-82.8499999999999943
11
98.125
21
-82.8499999999999943
0
LINE
8
BLACK
6
CONTINUOUS
10
98.125
20
-82.8499999999999943
11
98.125
21
-69.5499999999999972
0
LINE
8
BLACK
6
CONTINUOUS
10
98.125
20
-69.5499999999999972
11
111.4249999999999972
21
-69.5499999999999972
0
LINE
8
BLACK
6
CONTINUOUS
10
111.4249999999999972
20
-69.5499999999999972
11
111.4249999999999972
21
-82.8499999999999943
0
LINE
8
BLACK
6
CONTINUOUS
10
113.75
20
-81.7249989999999968
11
119.7999999999999972
21
-81.7249989999999968
0
LINE
8
BLACK
6
CONTINUOUS
10
119.7999999999999972
20
-81.7249989999999968
11
119.7999999999999972
21
-69.1749989999999997
0
LINE
8
BLACK
6
CONTINUOUS
10
119.7999999999999972
20
-69.1749989999999997
11
113.75
21
-69.1749989999999997
0
LINE
8
BLACK
6
CONTINUOUS
10
113.75
20
-69.1749989999999997
11
113.75
21
-81.7249989999999968
0
LINE
8
BLACK
6
CONTINUOUS
10
114.125
20
-81.3499989999999968
11
119.4249999999999972
21
-81.3499989999999968
0
LINE
8
BLACK
6
CONTINUOUS
10
119.4249999999999972
20
-81.3499989999999968
11
119.4249999999999972
21
-69.5499989999999997
0
LINE
8
BLACK
6
CONTINUOUS
10
119.4249999999999972
20
-69.5499989999999997
11
114.125
21
-69.5499989999999997
0
LINE
8
BLACK
6
CONTINUOUS
10
114.125
20
-69.5499989999999997
11
114.125
21
-81.3499989999999968
0
ARC
8
BLACK
10
92.7749999999999915
20
-68.2999999999999972
40
0.85
50
0.00000000
51
180.00000000
0
ARC
8
BLACK
10
98.125
20
-69.5499999999999972
40
0.4999993955236346
50
-311.40954357
51
-138.59045643
0
ARC
8
BLACK
10
98.125
20
-82.8499999999999943
40
0.4999993955236346
50
-221.40954357
51
-48.59045643
0
ARC
8
BLACK
10
111.4249999999999972
20
-69.5499999999999972
40
0.4999993955236346
50
-41.40954357
51
131.40954357
0
ARC
8
BLACK
10
111.4249999999999972
20
-82.8499999999999943
40
0.4999993955236346
50
-131.40954357
51
41.40954357
0
ARC
8
BLACK
10
116.7749999999999915
20
-68.2999989999999997
40
0.85
50
0.00000000
51
180.00000000
0
CIRCLE
8
BLACK
10
90.125
20
-69.5499999999999972
40
0.500625
0
CIRCLE
8
BLACK
10
90.125
20
-81.3499999999999943
40
0.500625
0
CIRCLE
8
BLACK
10
95.4249999999999972
20
-69.5499999999999972
40
0.500625
0
CIRCLE
8
BLACK
10
95.4249999999999972
20
-81.3499999999999943
40
0.500625
0
CIRCLE
8
BLACK
10
114.125
20
-69.5499989999999997
40
0.500625
0
CIRCLE
8
BLACK
10
114.125
20
-81.3499989999999968
40
0.500625
0
CIRCLE
8
BLACK
10
119.4249999999999972
20
-69.5499989999999997
40
0.500625
0
CIRCLE
8
BLACK
10
119.4249999999999972
20
-81.3499989999999968
40
0.500625
0
LINE
8
BLACK
6
CONTINUOUS
10
64.4124999999999943
20
-31.7807169999999992
11
64.4124999999999943
21
-44.4192830000000001
0
LINE
8
BLACK
6
CONTINUOUS
10
65.1182179999999988
20
-45.1249989999999954
11
77.7567829999999987
21
-45.125
0
LINE
8
BLACK
6
CONTINUOUS
10
77.7567829999999987
20
-31.0749999999999993
11
65.1182170000000013
21
-31.0749999999999993
0
LINE
8
BLACK
6
CONTINUOUS
10
78.462498999999994
20
-44.4192819999999955
11
78.4624999999999915
21
-31.7807169999999992
0
ARC
8
BLACK
10
64.7874999999999943
20
-31.4499999999999993
40
0.4999993955236346
50
-311.40954357
51
-138.59045643
0
ARC
8
BLACK
10
64.7874999999999943
20
-44.75
40
0.4999993955236346
50
-221.40954357
51
-48.59045643
0
ARC
8
BLACK
10
78.0874999999999915
20
-31.4499999999999993
40
0.4999993955236346
50
-41.40954357
51
131.40954357
0
ARC
8
BLACK
10
78.0874999999999915
20
-44.75
40
0.4999993955236346
50
-131.40954357
51
41.40954357
0
LINE
8
BLACK
6
CONTINUOUS
10
35.8374999999999986
20
-50.8307649999999995
11
35.8374999999999986
21
-63.4693309999999968
0
LINE
8
BLACK
6
CONTINUOUS
10
36.543217999999996
20
-64.1750469999999922
11
49.1817829999999958
21
-64.1750480000000039
0
LINE
8
BLACK
6
CONTINUOUS
10
49.1817829999999958
20
-50.1250479999999996
11
36.5432169999999985
21
-50.1250479999999996
0
LINE
8
BLACK
6
CONTINUOUS
10
49.8874989999999983
20
-63.4693299999999994
11
49.8874999999999957
21
-50.8307649999999995
0
ARC
8
BLACK
10
36.2124999999999986
20
-50.5000479999999996
40
0.4999993955236346
50
-311.40954357
51
-138.59045643
0
ARC
8
BLACK
10
36.2124999999999986
20
-63.8000479999999968
40
0.4999993955236346
50
-221.40954357
51
-48.59045643
0
ARC
8
BLACK
10
49.5124999999999957
20
-50.5000479999999996
40
0.4999993955236346
50
-41.40954357
51
131.40954357
0
ARC
8
BLACK
10
49.5124999999999957
20
-63.8000479999999968
40
0.4999993955236346
50
-131.40954357
51
41.40954357
0
LINE
8
BLACK
6
CONTINUOUS
10
164.4249999999999829
20
6.3192829999999995
11
164.4249999999999829
21
-6.3192829999999995
0
LINE
8
BLACK
6
CONTINUOUS
10
165.1307180000000017
20
-7.0249989999999993
11
177.7692830000000015
21
-7.0249999999999995
0
LINE
8
BLACK
6
CONTINUOUS
10
177.7692830000000015
20
7.0249999999999995
11
165.1307170000000042
21
7.0249999999999995
0
LINE
8
BLACK
6
CONTINUOUS
10
178.4749989999999968
20
-6.3192819999999994
11
178.4749999999999943
21
6.3192829999999995
0
ARC
8
BLACK
10
164.7999999999999829
20
6.6499999999999995
40
0.4999993955236346
50
-311.40954357
51
-138.59045643
0
ARC
8
BLACK
10
164.7999999999999829
20
-6.6499999999999995
40
0.4999993955236346
50
-221.40954357
51
-48.59045643
0
ARC
8
BLACK
10
178.0999999999999943
20
6.6499999999999995
40
0.4999993955236346
50
-41.40954357
51
131.40954357
0
ARC
8
BLACK
10
178.0999999999999943
20
-6.6499999999999995
40
0.4999993955236346
50
-131.40954357
51
41.40954357
0
LINE
8
BLACK
6
CONTINUOUS
10
221.5749999999999886
20
6.3192829999999995
11
221.5749999999999886
21
-6.3192829999999995
0
LINE
8
BLACK
6
CONTINUOUS
10
222.2807179999999789
20
-7.0249989999999993
11
234.9192829999999788
21
-7.0249999999999995
0
LINE
8
BLACK
6
CONTINUOUS
10
234.9192829999999788
20
7.0249999999999995
11
222.2807169999999815
21
7.0249999999999995
0
LINE
8
BLACK
6
CONTINUOUS
10
235.6249990000000025
20
-6.3192819999999994
11
235.625
21
6.3192829999999995
0
ARC
8
BLACK
10
221.9499999999999886
20
6.6499999999999995
40
0.4999993955236346
50
-311.40954357
51
-138.59045643
0
ARC
8
BLACK
10
221.9499999999999886
20
-6.6499999999999995
40
0.4999993955236346
50
-221.40954357
51
-48.59045643
0
ARC
8
BLACK
10
235.25
20
6.6499999999999995
40
0.4999993955236346
50
-41.40954357
51
131.40954357
0
ARC
8
BLACK
10
235.25
20
-6.6499999999999995
40
0.4999993955236346
50
-131.40954357
51
41.40954357
0
LINE
8
BLACK
6
CONTINUOUS
10
231.1002009999999984
20
-69.8807819999999964
11
231.100200000000001
21
-82.5193469999999962
0
LINE
8
BLACK
6
CONTINUOUS
10
231.8059169999999938
20
-83.2250640000000033
11
244.4444829999999911
21
-83.2250640000000033
0
LINE
8
BLACK
6
CONTINUOUS
10
244.4444819999999936
20
-69.1750650000000036
11
231.8059169999999938
21
-69.1750639999999919
0
LINE
8
BLACK
6
CONTINUOUS
10
245.1501999999999839
20
-82.5193469999999962
11
245.1501999999999839
21
-69.8807809999999989
0
ARC
8
BLACK
10
231.475200000000001
20
-69.5500639999999919
40
0.4999993955236346
50
-311.40954357
51
-138.59045643
0
ARC
8
BLACK
10
231.475200000000001
20
-82.8500640000000033
40
0.4999993955236346
50
-221.40954357
51
-48.59045643
0
ARC
8
BLACK
10
244.7751999999999839
20
-69.5500639999999919
40
0.4999993955236346
50
-41.40954357
51
131.40954357
0
ARC
8
BLACK
10
244.7751999999999839
20
-82.8500640000000033
40
0.4999993955236346
50
-131.40954357
51
41.40954357
0
LINE
8
BLACK
6
CONTINUOUS
10
197.7624999999999886
20
-31.7807169999999992
11
197.7624999999999886
21
-44.4192830000000001
0
LINE
8
BLACK
6
CONTINUOUS
10
198.4682179999999789
20
-45.1249989999999954
11
211.1067829999999788
21
-45.125
0
LINE
8
BLACK
6
CONTINUOUS
10
211.1067829999999788
20
-31.0749999999999993
11
198.4682169999999815
21
-31.0749999999999993
0
LINE
8
BLACK
6
CONTINUOUS
10
211.8124990000000025
20
-44.4192819999999955
11
211.8125
21
-31.7807169999999992
0
ARC
8
BLACK
10
198.1374999999999886
20
-31.4499999999999993
40
0.4999993955236346
50
-311.40954357
51
-138.59045643
0
ARC
8
BLACK
10
198.1374999999999886
20
-44.75
40
0.4999993955236346
50
-221.40954357
51
-48.59045643
0
ARC
8
BLACK
10
211.4375
20
-31.4499999999999993
40
0.4999993955236346
50
-41.40954357
51
131.40954357
0
ARC
8
BLACK
10
211.4375
20
-44.75
40
0.4999993955236346
50
-131.40954357
51
41.40954357
0
LINE
8
BLACK
6
CONTINUOUS
10
183.4749999999999943
20
6.3192829999999995
11
183.4749999999999943
21
-6.3192829999999995
0
LINE
8
BLACK
6
CONTINUOUS
10
184.1807179999999846
20
-7.0249989999999993
11
196.8192829999999844
21
-7.0249999999999995
0
LINE
8
BLACK
6
CONTINUOUS
10
196.8192829999999844
20
7.0249999999999995
11
184.1807169999999871
21
7.0249999999999995
0
LINE
8
BLACK
6
CONTINUOUS
10
197.5249989999999798
20
-6.3192819999999994
11
197.5249999999999773
21
6.3192829999999995
0
ARC
8
BLACK
10
183.8499999999999943
20
6.6499999999999995
40
0.4999993955236346
50
-311.40954357
51
-138.59045643
0
ARC
8
BLACK
10
183.8499999999999943
20
-6.6499999999999995
40
0.4999993955236346
50
-221.40954357
51
-48.59045643
0
ARC
8
BLACK
10
197.1499999999999773
20
6.6499999999999995
40
0.4999993955236346
50
-41.40954357
51
131.40954357
0
ARC
8
BLACK
10
197.1499999999999773
20
-6.6499999999999995
40
0.4999993955236346
50
-131.40954357
51
41.40954357
0
LINE
8
BLACK
6
CONTINUOUS
10
78.7000010000000003
20
-12.7307179999999995
11
78.7000000000000028
21
-25.3692829999999994
0
LINE
8
BLACK
6
CONTINUOUS
10
79.4057169999999957
20
-26.0749999999999993
11
92.044282999999993
21
-26.0749999999999993
0
LINE
8
BLACK
6
CONTINUOUS
10
92.0442819999999955
20
-12.0250009999999996
11
79.4057169999999957
21
-12.0249999999999986
0
LINE
8
BLACK
6
CONTINUOUS
10
92.75
20
-25.3692829999999994
11
92.75
21
-12.7307170000000003
0
ARC
8
BLACK
10
79.0750000000000028
20
-12.3999999999999986
40
0.4999993955236346
50
-311.40954357
51
-138.59045643
0
ARC
8
BLACK
10
79.0750000000000028
20
-25.6999999999999993
40
0.4999993955236346
50
-221.40954357
51
-48.59045643
0
ARC
8
BLACK
10
92.375
20
-12.3999999999999986
40
0.4999993955236346
50
-41.40954357
51
131.40954357
0
ARC
8
BLACK
10
92.375
20
-25.6999999999999993
40
0.4999993955236346
50
-131.40954357
51
41.40954357
0
LINE
8
BLACK
6
CONTINUOUS
10
212.0500009999999804
20
-12.7307179999999995
11
212.0499999999999829
21
-25.3692829999999994
0
LINE
8
BLACK
6
CONTINUOUS
10
212.7557170000000042
20
-26.0749999999999993
11
225.3942830000000015
21
-26.0749999999999993
0
LINE
8
BLACK
6
CONTINUOUS
10
225.3942819999999756
20
-12.0250009999999996
11
212.7557170000000042
21
-12.0249999999999986
0
LINE
8
BLACK
6
CONTINUOUS
10
226.0999999999999943
20
-25.3692829999999994
11
226.0999999999999943
21
-12.7307170000000003
0
ARC
8
BLACK
10
212.4249999999999829
20
-12.3999999999999986
40
0.4999993955236346
50
-311.40954357
51
-138.59045643
0
ARC
8
BLACK
10
212.4249999999999829
20
-25.6999999999999993
40
0.4999993955236346
50
-221.40954357
51
-48.59045643
0
ARC
8
BLACK
10
225.7249999999999943
20
-12.3999999999999986
40
0.4999993955236346
50
-41.40954357
51
131.40954357
0
ARC
8
BLACK
10
225.7249999999999943
20
-25.6999999999999993
40
0.4999993955236346
50
-131.40954357
51
41.40954357
0
LINE
8
BLACK
6
CONTINUOUS
10
116.8000009999999946
20
-12.7307179999999995
11
116.7999999999999972
21
-25.3692829999999994
0
LINE
8
BLACK
6
CONTINUOUS
10
117.50571699999999
20
-26.0749999999999993
11
130.1442830000000015
21
-26.0749999999999993
0
LINE
8
BLACK
6
CONTINUOUS
10
130.144282000000004
20
-12.0250009999999996
11
117.50571699999999
21
-12.0249999999999986
0
LINE
8
BLACK
6
CONTINUOUS
10
130.8499999999999943
20
-25.3692829999999994
11
130.8499999999999943
21
-12.7307170000000003
0
ARC
8
BLACK
10
117.1749999999999972
20
-12.3999999999999986
40
0.4999993955236346
50
-311.40954357
51
-138.59045643
0
ARC
8
BLACK
10
117.1749999999999972
20
-25.6999999999999993
40
0.4999993955236346
50
-221.40954357
51
-48.59045643
0
ARC
8
BLACK
10
130.4749999999999943
20
-12.3999999999999986
40
0.4999993955236346
50
-41.40954357
51
131.40954357
0
ARC
8
BLACK
10
130.4749999999999943
20
-25.6999999999999993
40
0.4999993955236346
50
-131.40954357
51
41.40954357
0
LINE
8
BLACK
6
CONTINUOUS
10
241.9437499999999943
20
-30.1999999999999993
11
241.9437499999999943
21
-31.2419999999999973
0
LINE
8
BLACK
6
CONTINUOUS
10
243.6437499999999829
20
-30.1999999999999993
11
243.6437499999999829
21
-31.2249999999999979
0
LINE
8
BLACK
6
CONTINUOUS
10
245.4437499999999943
20
-38.1000000000000014
11
247.7687499999999829
21
-38.1000000000000014
0
LINE
8
BLACK
6
CONTINUOUS
10
245.5187499999999829
20
-36.1000000000000014
11
247.7687499999999829
21
-36.1000000000000014
0
LINE
8
BLACK
6
CONTINUOUS
10
247.7687499999999829
20
-31.7807169999999992
11
247.7687499999999829
21
-36.1000000000000014
0
LINE
8
BLACK
6
CONTINUOUS
10
247.7687499999999829
20
-44.4192819999999955
11
247.7687499999999829
21
-38.1000000000000014
0
LINE
8
BLACK
6
CONTINUOUS
10
248.4744680000000017
20
-45.1249989999999954
11
261.1130329999999731
21
-45.125
0
LINE
8
BLACK
6
CONTINUOUS
10
261.1130329999999731
20
-31.0749999999999993
11
248.4744669999999758
21
-31.0749999999999993
0
LINE
8
BLACK
6
CONTINUOUS
10
261.8187489999999684
20
-44.4192819999999955
11
261.8187499999999659
21
-31.7807169999999992
0
LINE
8
BLACK
6
CONTINUOUS
10
264.0687499999999659
20
-36.0999989999999968
11
261.8187499999999659
21
-36.0999989999999968
0
LINE
8
BLACK
6
CONTINUOUS
10
264.1437500000000114
20
-38.0999989999999968
11
261.8187499999999659
21
-38.0999989999999968
0
LINE
8
BLACK
6
CONTINUOUS
10
265.9437499999999659
20
-30.1999989999999983
11
265.9437499999999659
21
-31.2249989999999968
0
LINE
8
BLACK
6
CONTINUOUS
10
267.6437500000000114
20
-30.1999989999999983
11
267.6437500000000114
21
-31.2419989999999999
0
LINE
8
BLACK
6
CONTINUOUS
10
245.4437499999999943
20
-43.25
11
240.1437499999999829
21
-43.25
0
LINE
8
BLACK
6
CONTINUOUS
10
240.1437499999999829
20
-43.25
11
240.1437499999999829
21
-31.4499999999999993
0
LINE
8
BLACK
6
CONTINUOUS
10
240.1437499999999829
20
-31.4499999999999993
11
245.4437499999999943
21
-31.4499999999999993
0
LINE
8
BLACK
6
CONTINUOUS
10
245.4437499999999943
20
-31.4499999999999993
11
245.4437499999999943
21
-43.25
0
LINE
8
BLACK
6
CONTINUOUS
10
245.8187499999999943
20
-43.625
11
239.7687499999999829
21
-43.625
0
LINE
8
BLACK
6
CONTINUOUS
10
239.7687499999999829
20
-43.625
11
239.7687499999999829
21
-31.0749999999999993
0
LINE
8
BLACK
6
CONTINUOUS
10
239.7687499999999829
20
-31.0749999999999993
11
245.8187499999999943
21
-31.0749999999999993
0
LINE
8
BLACK
6
CONTINUOUS
10
245.8187499999999943
20
-31.0749999999999993
11
245.8187499999999943
21
-43.625
0
LINE
8
BLACK
6
CONTINUOUS
10
261.4437499999999659
20
-44.75
11
248.1437499999999829
21
-44.75
0
LINE
8
BLACK
6
CONTINUOUS
10
248.1437499999999829
20
-44.75
11
248.1437499999999829
21
-31.4499999999999993
0
LINE
8
BLACK
6
CONTINUOUS
10
248.1437499999999829
20
-31.4499999999999993
11
261.4437499999999659
21
-31.4499999999999993
0
LINE
8
BLACK
6
CONTINUOUS
10
261.4437499999999659
20
-31.4499999999999993
11
261.4437499999999659
21
-44.75
0
LINE
8
BLACK
6
CONTINUOUS
10
263.7687500000000114
20
-43.6249989999999954
11
269.8187499999999659
21
-43.6249989999999954
0
LINE
8
BLACK
6
CONTINUOUS
10
269.8187499999999659
20
-43.6249989999999954
11
269.8187499999999659
21
-31.0749989999999983
0
LINE
8
BLACK
6
CONTINUOUS
10
269.8187499999999659
20
-31.0749989999999983
11
263.7687500000000114
21
-31.0749989999999983
0
LINE
8
BLACK
6
CONTINUOUS
10
263.7687500000000114
20
-31.0749989999999983
11
263.7687500000000114
21
-43.6249989999999954
0
LINE
8
BLACK
6
CONTINUOUS
10
264.1437500000000114
20
-43.2499989999999954
11
269.4437499999999659
21
-43.2499989999999954
0
LINE
8
BLACK
6
CONTINUOUS
10
269.4437499999999659
20
-43.2499989999999954
11
269.4437499999999659
21
-31.4499989999999983
0
LINE
8
BLACK
6
CONTINUOUS
10
269.4437499999999659
20
-31.4499989999999983
11
264.1437500000000114
21
-31.4499989999999983
0
LINE
8
BLACK
6
CONTINUOUS
10
264.1437500000000114
20
-31.4499989999999983
11
264.1437500000000114
21
-43.2499989999999954
0
ARC
8
BLACK
10
242.7937499999999886
20
-30.1999999999999993
40
0.85
50
0.00000000
51
180.00000000
0
ARC
8
BLACK
10
248.1437499999999829
20
-31.4499999999999993
40
0.4999993955236346
50
-311.40954357
51
-138.59045643
0
ARC
8
BLACK
10
248.1437499999999829
20
-44.75
40
0.4999993955236346
50
-221.40954357
51
-48.59045643
0
ARC
8
BLACK
10
261.4437499999999659
20
-31.4499999999999993
40
0.4999993955236346
50
-41.40954357
51
131.40954357
0
ARC
8
BLACK
10
261.4437499999999659
20
-44.75
40
0.4999993955236346
50
-131.40954357
51
41.40954357
0
ARC
8
BLACK
10
266.7937499999999886
20
-30.1999989999999983
40
0.85
50
0.00000000
51
180.00000000
0
CIRCLE
8
BLACK
10
240.1437499999999829
20
-31.4499999999999993
40
0.500625
0
CIRCLE
8
BLACK
10
240.1437499999999829
20
-43.25
40
0.500625
0
CIRCLE
8
BLACK
10
245.4437499999999943
20
-31.4499999999999993
40
0.500625
0
CIRCLE
8
BLACK
10
245.4437499999999943
20
-43.25
40
0.500625
0
CIRCLE
8
BLACK
10
264.1437500000000114
20
-31.4499989999999983
40
0.500625
0
CIRCLE
8
BLACK
10
264.1437500000000114
20
-43.2499989999999954
40
0.500625
0
CIRCLE
8
BLACK
10
269.4437499999999659
20
-31.4499989999999983
40
0.500625
0
CIRCLE
8
BLACK
10
269.4437499999999659
20
-43.2499989999999954
40
0.500625
0
LINE
8
BLACK
6
CONTINUOUS
10
173.9500009999999861
20
-12.7307179999999995
11
173.9499999999999886
21
-25.3692829999999994
0
LINE
8
BLACK
6
CONTINUOUS
10
174.6557169999999815
20
-26.0749999999999993
11
187.2942829999999788
21
-26.0749999999999993
0
LINE
8
BLACK
6
CONTINUOUS
10
187.2942819999999813
20
-12.0250009999999996
11
174.6557169999999815
21
-12.0249999999999986
0
LINE
8
BLACK
6
CONTINUOUS
10
188.
20
-25.3692829999999994
11
188.
21
-12.7307170000000003
0
ARC
8
BLACK
10
174.3249999999999886
20
-12.3999999999999986
40
0.4999993955236346
50
-311.40954357
51
-138.59045643
0
ARC
8
BLACK
10
174.3249999999999886
20
-25.6999999999999993
40
0.4999993955236346
50
-221.40954357
51
-48.59045643
0
ARC
8
BLACK
10
187.625
20
-12.3999999999999986
40
0.4999993955236346
50
-41.40954357
51
131.40954357
0
ARC
8
BLACK
10
187.625
20
-25.6999999999999993
40
0.4999993955236346
50
-131.40954357
51
41.40954357
0
LINE
8
BLACK
6
CONTINUOUS
10
26.3125
20
-31.7807490000000001
11
26.3125
21
-44.4193149999999974
0
LINE
8
BLACK
6
CONTINUOUS
10
27.0182179999999974
20
-45.1250309999999999
11
39.6567829999999972
21
-45.1250319999999974
0
LINE
8
BLACK
6
CONTINUOUS
10
39.6567829999999972
20
-31.0750320000000002
11
27.0182169999999999
21
-31.0750320000000002
0
LINE
8
BLACK
6
CONTINUOUS
10
40.3624989999999997
20
-44.419314
11
40.3624999999999972
21
-31.7807490000000001
0
ARC
8
BLACK
10
26.6875
20
-31.4500320000000002
40
0.4999993955236346
50
-311.40954357
51
-138.59045643
0
ARC
8
BLACK
10
26.6875
20
-44.7500319999999974
40
0.4999993955236346
50
-221.40954357
51
-48.59045643
0
ARC
8
BLACK
10
39.9874999999999972
20
-31.4500320000000002
40
0.4999993955236346
50
-41.40954357
51
131.40954357
0
ARC
8
BLACK
10
39.9874999999999972
20
-44.7500319999999974
40
0.4999993955236346
50
-131.40954357
51
41.40954357
0
LINE
8
BLACK
6
CONTINUOUS
10
252.53125
20
-50.8307169999999999
11
252.53125
21
-63.4692829999999972
0
LINE
8
BLACK
6
CONTINUOUS
10
253.2369679999999903
20
-64.1749989999999997
11
265.8755329999999617
21
-64.1749999999999972
0
LINE
8
BLACK
6
CONTINUOUS
10
265.8755329999999617
20
-50.125
11
253.2369669999999928
21
-50.125
0
LINE
8
BLACK
6
CONTINUOUS
10
266.5812490000000139
20
-63.4692819999999998
11
266.5812500000000114
21
-50.8307169999999999
0
ARC
8
BLACK
10
252.90625
20
-50.5
40
0.4999993955236346
50
-311.40954357
51
-138.59045643
0
ARC
8
BLACK
10
252.90625
20
-63.7999999999999972
40
0.4999993955236346
50
-221.40954357
51
-48.59045643
0
ARC
8
BLACK
10
266.2062500000000114
20
-50.5
40
0.4999993955236346
50
-41.40954357
51
131.40954357
0
ARC
8
BLACK
10
266.2062500000000114
20
-63.7999999999999972
40
0.4999993955236346
50
-131.40954357
51
41.40954357
0
LINE
8
BLACK
6
CONTINUOUS
10
73.9375
20
-50.8307169999999999
11
73.9375
21
-63.4692829999999972
0
LINE
8
BLACK
6
CONTINUOUS
10
74.6432179999999903
20
-64.1749989999999997
11
87.2817829999999901
21
-64.1749999999999972
0
LINE
8
BLACK
6
CONTINUOUS
10
87.2817829999999901
20
-50.125
11
74.6432169999999928
21
-50.125
0
LINE
8
BLACK
6
CONTINUOUS
10
87.9874989999999997
20
-63.4692819999999998
11
87.9874999999999972
21
-50.8307169999999999
0
ARC
8
BLACK
10
74.3125
20
-50.5
40
0.4999993955236346
50
-311.40954357
51
-138.59045643
0
ARC
8
BLACK
10
74.3125
20
-63.7999999999999972
40
0.4999993955236346
50
-221.40954357
51
-48.59045643
0
ARC
8
BLACK
10
87.6124999999999972
20
-50.5
40
0.4999993955236346
50
-41.40954357
51
131.40954357
0
ARC
8
BLACK
10
87.6124999999999972
20
-63.7999999999999972
40
0.4999993955236346
50
-131.40954357
51
41.40954357
0
LINE
8
BLACK
6
CONTINUOUS
10
226.337695999999994
20
-50.8307649999999995
11
226.337695999999994
21
-63.4693309999999968
0
LINE
8
BLACK
6
CONTINUOUS
10
227.0434139999999843
20
-64.1750469999999922
11
239.6819789999999841
21
-64.1750480000000039
0
LINE
8
BLACK
6
CONTINUOUS
10
239.6819789999999841
20
-50.1250479999999996
11
227.0434129999999868
21
-50.1250479999999996
0
LINE
8
BLACK
6
CONTINUOUS
10
240.3876949999999795
20
-63.4693299999999994
11
240.3876959999999769
21
-50.8307649999999995
0
ARC
8
BLACK
10
226.712695999999994
20
-50.5000479999999996
40
0.4999993955236346
50
-311.40954357
51
-138.59045643
0
ARC
8
BLACK
10
226.712695999999994
20
-63.8000479999999968
40
0.4999993955236346
50
-221.40954357
51
-48.59045643
0
ARC
8
BLACK
10
240.0126959999999769
20
-50.5000479999999996
40
0.4999993955236346
50
-41.40954357
51
131.40954357
0
ARC
8
BLACK
10
240.0126959999999769
20
-63.8000479999999968
40
0.4999993955236346
50
-131.40954357
51
41.40954357
0
LINE
8
BLACK
6
CONTINUOUS
10
-0.94375
20
-65.0500009999999946
11
-0.94375
21
-64.008000999999993
0
LINE
8
BLACK
6
CONTINUOUS
10
0.75625
20
-65.0500009999999946
11
0.75625
21
-64.0250010000000032
0
LINE
8
BLACK
6
CONTINUOUS
10
2.5562499999999999
20
-57.1500009999999961
11
4.8812499999999996
21
-57.1500009999999961
0
LINE
8
BLACK
6
CONTINUOUS
10
2.6312500000000001
20
-59.1500009999999961
11
4.8812499999999996
21
-59.1500009999999961
0
LINE
8
BLACK
6
CONTINUOUS
10
4.8812509999999998
20
-50.8307179999999974
11
4.8812499999999996
21
-63.4692829999999972
0
LINE
8
BLACK
6
CONTINUOUS
10
5.5869669999999996
20
-64.1749999999999972
11
18.2255329999999987
21
-64.1749999999999972
0
LINE
8
BLACK
6
CONTINUOUS
10
18.2255319999999976
20
-50.1250009999999975
11
5.5869669999999996
21
-50.125
0
LINE
8
BLACK
6
CONTINUOUS
10
18.9312499999999986
20
-50.8307179999999974
11
18.9312499999999986
21
-57.1499999999999986
0
LINE
8
BLACK
6
CONTINUOUS
10
18.9312499999999986
20
-63.4692829999999972
11
18.9312499999999986
21
-59.1499999999999986
0
LINE
8
BLACK
6
CONTINUOUS
10
21.1812499999999986
20
-59.1499999999999986
11
18.9312499999999986
21
-59.1499999999999986
0
LINE
8
BLACK
6
CONTINUOUS
10
21.2562499999999979
20
-57.1499999999999986
11
18.9312499999999986
21
-57.1499999999999986
0
LINE
8
BLACK
6
CONTINUOUS
10
23.0562499999999986
20
-65.0499999999999972
11
23.0562499999999986
21
-64.0249999999999915
0
LINE
8
BLACK
6
CONTINUOUS
10
24.7562499999999979
20
-65.0499999999999972
11
24.7562499999999979
21
-64.0079999999999956
0
LINE
8
BLACK
6
CONTINUOUS
10
2.5562499999999999
20
-52.0000009999999975
11
-2.7437499999999999
21
-52.0000009999999975
0
LINE
8
BLACK
6
CONTINUOUS
10
-2.7437499999999999
20
-52.0000009999999975
11
-2.7437499999999999
21
-63.8000009999999946
0
LINE
8
BLACK
6
CONTINUOUS
10
-2.7437499999999999
20
-63.8000009999999946
11
2.5562499999999999
21
-63.8000009999999946
0
LINE
8
BLACK
6
CONTINUOUS
10
2.5562499999999999
20
-63.8000009999999946
11
2.5562499999999999
21
-52.0000009999999975
0
LINE
8
BLACK
6
CONTINUOUS
10
2.9312499999999999
20
-51.6250009999999975
11
-3.1187499999999999
21
-51.6250009999999975
0
LINE
8
BLACK
6
CONTINUOUS
10
-3.1187499999999999
20
-51.6250009999999975
11
-3.1187499999999999
21
-64.1750009999999946
0
LINE
8
BLACK
6
CONTINUOUS
10
-3.1187499999999999
20
-64.1750009999999946
11
2.9312499999999999
21
-64.1750009999999946
0
LINE
8
BLACK
6
CONTINUOUS
10
2.9312499999999999
20
-64.1750009999999946
11
2.9312499999999999
21
-51.6250009999999975
0
LINE
8
BLACK
6
CONTINUOUS
10
5.2562499999999996
20
-50.5
11
18.5562499999999986
21
-50.5
0
LINE
8
BLACK
6
CONTINUOUS
10
18.5562499999999986
20
-50.5
11
18.5562499999999986
21
-63.7999999999999972
0
LINE
8
BLACK
6
CONTINUOUS
10
18.5562499999999986
20
-63.7999999999999972
11
5.2562499999999996
21
-63.7999999999999972
0
LINE
8
BLACK
6
CONTINUOUS
10
5.2562499999999996
20
-63.7999999999999972
11
5.2562499999999996
21
-50.5
0
LINE
8
BLACK
6
CONTINUOUS
10
20.8812499999999979
20
-51.625
11
26.9312499999999986
21
-51.625
0
LINE
8
BLACK
6
CONTINUOUS
10
26.9312499999999986
20
-51.625
11
26.9312499999999986
21
-64.1749999999999972
0
LINE
8
BLACK
6
CONTINUOUS
10
26.9312499999999986
20
-64.1749999999999972
11
20.8812499999999979
21
-64.1749999999999972
0
LINE
8
BLACK
6
CONTINUOUS
10
20.8812499999999979
20
-64.1749999999999972
11
20.8812499999999979
21
-51.625
0
LINE
8
BLACK
6
CONTINUOUS
10
21.2562499999999979
20
-52.
11
26.5562499999999986
21
-52.
0
LINE
8
BLACK
6
CONTINUOUS
10
26.5562499999999986
20
-52.
11
26.5562499999999986
21
-63.7999999999999972
0
LINE
8
BLACK
6
CONTINUOUS
10
26.5562499999999986
20
-63.7999999999999972
11
21.2562499999999979
21
-63.7999999999999972
0
LINE
8
BLACK
6
CONTINUOUS
10
21.2562499999999979
20
-63.7999999999999972
11
21.2562499999999979
21
-52.
0
ARC
8
BLACK
10
-0.09375
20
-65.0500009999999946
40
0.85
50
-180.00000000
51
-0.00000000
0
ARC
8
BLACK
10
5.2562499999999996
20
-50.5
40
0.4999993955236346
50
-311.40954357
51
-138.59045643
0
ARC
8
BLACK
10
5.2562499999999996
20
-63.7999999999999972
40
0.4999993955236346
50
-221.40954357
51
-48.59045643
0
ARC
8
BLACK
10
18.5562499999999986
20
-50.5
40
0.4999993955236346
50
-41.40954357
51
131.40954357
0
ARC
8
BLACK
10
18.5562499999999986
20
-63.7999999999999972
40
0.4999993955236346
50
-131.40954357
51
41.40954357
0
ARC
8
BLACK
10
23.90625
20
-65.0499999999999972
40
0.85
50
-180.00000000
51
-0.00000000
0
CIRCLE
8
BLACK
10
-2.7437499999999999
20
-52.0000009999999975
40
0.500625
0
CIRCLE
8
BLACK
10
-2.7437499999999999
20
-63.8000009999999946
40
0.500625
0
CIRCLE
8
BLACK
10
2.5562499999999999
20
-52.0000009999999975
40
0.500625
0
CIRCLE
8
BLACK
10
2.5562499999999999
20
-63.8000009999999946
40
0.500625
0
CIRCLE
8
BLACK
10
21.2562499999999979
20
-52.
40
0.500625
0
CIRCLE
8
BLACK
10
21.2562499999999979
20
-63.7999999999999972
40
0.500625
0
CIRCLE
8
BLACK
10
26.5562499999999986
20
-52.
40
0.500625
0
CIRCLE
8
BLACK
10
26.5562499999999986
20
-63.7999999999999972
40
0.500625
0
LINE
8
BLACK
6
CONTINUOUS
10
207.2874999999999943
20
-50.8307169999999999
11
207.2874999999999943
21
-63.4692829999999972
0
LINE
8
BLACK
6
CONTINUOUS
10
207.9932179999999846
20
-64.1749989999999997
11
220.6317829999999844
21
-64.1749999999999972
0
LINE
8
BLACK
6
CONTINUOUS
10
220.6317829999999844
20
-50.125
11
207.9932169999999871
21
-50.125
0
LINE
8
BLACK
6
CONTINUOUS
10
221.3374989999999798
20
-63.4692819999999998
11
221.3374999999999773
21
-50.8307169999999999
0
ARC
8
BLACK
10
207.6624999999999943
20
-50.5
40
0.4999993955236346
50
-311.40954357
51
-138.59045643
0
ARC
8
BLACK
10
207.6624999999999943
20
-63.7999999999999972
40
0.4999993955236346
50
-221.40954357
51
-48.59045643
0
ARC
8
BLACK
10
220.9624999999999773
20
-50.5
40
0.4999993955236346
50
-41.40954357
51
131.40954357
0
ARC
8
BLACK
10
220.9624999999999773
20
-63.7999999999999972
40
0.4999993955236346
50
-131.40954357
51
41.40954357
0
LINE
8
BLACK
6
CONTINUOUS
10
145.375
20
6.3192829999999995
11
145.375
21
-6.3192829999999995
0
LINE
8
BLACK
6
CONTINUOUS
10
146.0807179999999903
20
-7.0249989999999993
11
158.7192829999999901
21
-7.0249999999999995
0
LINE
8
BLACK
6
CONTINUOUS
10
158.7192829999999901
20
7.0249999999999995
11
146.0807169999999928
21
7.0249999999999995
0
LINE
8
BLACK
6
CONTINUOUS
10
159.4249989999999855
20
-6.3192819999999994
11
159.4249999999999829
21
6.3192829999999995
0
ARC
8
BLACK
10
145.75
20
6.6499999999999995
40
0.4999993955236346
50
-311.40954357
51
-138.59045643
0
ARC
8
BLACK
10
145.75
20
-6.6499999999999995
40
0.4999993955236346
50
-221.40954357
51
-48.59045643
0
ARC
8
BLACK
10
159.0499999999999829
20
6.6499999999999995
40
0.4999993955236346
50
-41.40954357
51
131.40954357
0
ARC
8
BLACK
10
159.0499999999999829
20
-6.6499999999999995
40
0.4999993955236346
50
-131.40954357
51
41.40954357
0
LINE
8
BLACK
6
CONTINUOUS
10
135.8500009999999918
20
-12.7307179999999995
11
135.8499999999999943
21
-25.3692829999999994
0
LINE
8
BLACK
6
CONTINUOUS
10
136.5557169999999871
20
-26.0749999999999993
11
149.1942829999999844
21
-26.0749999999999993
0
LINE
8
BLACK
6
CONTINUOUS
10
149.194281999999987
20
-12.0250009999999996
11
136.5557169999999871
21
-12.0249999999999986
0
LINE
8
BLACK
6
CONTINUOUS
10
149.9000000000000057
20
-25.3692829999999994
11
149.9000000000000057
21
-12.7307170000000003
0
ARC
8
BLACK
10
136.2249999999999943
20
-12.3999999999999986
40
0.4999993955236346
50
-311.40954357
51
-138.59045643
0
ARC
8
BLACK
10
136.2249999999999943
20
-25.6999999999999993
40
0.4999993955236346
50
-221.40954357
51
-48.59045643
0
ARC
8
BLACK
10
149.5250000000000057
20
-12.3999999999999986
40
0.4999993955236346
50
-41.40954357
51
131.40954357
0
ARC
8
BLACK
10
149.5250000000000057
20
-25.6999999999999993
40
0.4999993955236346
50
-131.40954357
51
41.40954357
0
LINE
8
BLACK
6
CONTINUOUS
10
130.0250000000000057
20
-68.2999999999999972
11
130.0250000000000057
21
-69.3419999999999987
0
LINE
8
BLACK
6
CONTINUOUS
10
131.7249999999999943
20
-68.2999999999999972
11
131.7249999999999943
21
-69.3250000000000028
0
LINE
8
BLACK
6
CONTINUOUS
10
133.5250000000000057
20
-76.2000000000000028
11
135.8499999999999943
21
-76.2000000000000028
0
LINE
8
BLACK
6
CONTINUOUS
10
133.5999999999999943
20
-74.2000000000000028
11
135.8499999999999943
21
-74.2000000000000028
0
LINE
8
BLACK
6
CONTINUOUS
10
135.8499999999999943
20
-69.88071699999999
11
135.8499999999999943
21
-74.2000000000000028
0
LINE
8
BLACK
6
CONTINUOUS
10
135.8499999999999943
20
-82.5192819999999898
11
135.8499999999999943
21
-76.2000000000000028
0
LINE
8
BLACK
6
CONTINUOUS
10
136.5557179999999846
20
-83.2249989999999968
11
149.1942829999999844
21
-83.2249999999999943
0
LINE
8
BLACK
6
CONTINUOUS
10
149.1942829999999844
20
-69.1749999999999972
11
136.5557169999999871
21
-69.1749999999999972
0
LINE
8
BLACK
6
CONTINUOUS
10
149.8999989999999798
20
-82.5192819999999898
11
149.9000000000000057
21
-69.88071699999999
0
LINE
8
BLACK
6
CONTINUOUS
10
152.1500000000000057
20
-74.1999989999999912
11
149.9000000000000057
21
-74.1999989999999912
0
LINE
8
BLACK
6
CONTINUOUS
10
152.2249999999999943
20
-76.1999989999999912
11
149.9000000000000057
21
-76.1999989999999912
0
LINE
8
BLACK
6
CONTINUOUS
10
154.0250000000000057
20
-68.2999989999999997
11
154.0250000000000057
21
-69.3249989999999912
0
LINE
8
BLACK
6
CONTINUOUS
10
155.7249999999999943
20
-68.2999989999999997
11
155.7249999999999943
21
-69.3419990000000013
0
LINE
8
BLACK
6
CONTINUOUS
10
133.5250000000000057
20
-81.3499999999999943
11
128.2249999999999943
21
-81.3499999999999943
0
LINE
8
BLACK
6
CONTINUOUS
10
128.2249999999999943
20
-81.3499999999999943
11
128.2249999999999943
21
-69.5499999999999972
0
LINE
8
BLACK
6
CONTINUOUS
10
128.2249999999999943
20
-69.5499999999999972
11
133.5250000000000057
21
-69.5499999999999972
0
LINE
8
BLACK
6
CONTINUOUS
10
133.5250000000000057
20
-69.5499999999999972
11
133.5250000000000057
21
-81.3499999999999943
0
LINE
8
BLACK
6
CONTINUOUS
10
133.9000000000000057
20
-81.7249999999999943
11
127.8499999999999943
21
-81.7249999999999943
0
LINE
8
BLACK
6
CONTINUOUS
10
127.8499999999999943
20
-81.7249999999999943
11
127.8499999999999943
21
-69.1749999999999972
0
LINE
8
BLACK
6
CONTINUOUS
10
127.8499999999999943
20
-69.1749999999999972
11
133.9000000000000057
21
-69.1749999999999972
0
LINE
8
BLACK
6
CONTINUOUS
10
133.9000000000000057
20
-69.1749999999999972
11
133.9000000000000057
21
-81.7249999999999943
0
LINE
8
BLACK
6
CONTINUOUS
10
149.5250000000000057
20
-82.8499999999999943
11
136.2249999999999943
21
-82.8499999999999943
0
LINE
8
BLACK
6
CONTINUOUS
10
136.2249999999999943
20
-82.8499999999999943
11
136.2249999999999943
21
-69.5499999999999972
0
LINE
8
BLACK
6
CONTINUOUS
10
136.2249999999999943
20
-69.5499999999999972
11
149.5250000000000057
21
-69.5499999999999972
0
LINE
8
BLACK
6
CONTINUOUS
10
149.5250000000000057
20
-69.5499999999999972
11
149.5250000000000057
21
-82.8499999999999943
0
LINE
8
BLACK
6
CONTINUOUS
10
151.8499999999999943
20
-81.7249989999999968
11
157.9000000000000057
21
-81.7249989999999968
0
LINE
8
BLACK
6
CONTINUOUS
10
157.9000000000000057
20
-81.7249989999999968
11
157.9000000000000057
21
-69.1749989999999997
0
LINE
8
BLACK
6
CONTINUOUS
10
157.9000000000000057
20
-69.1749989999999997
11
151.8499999999999943
21
-69.1749989999999997
0
LINE
8
BLACK
6
CONTINUOUS
10
151.8499999999999943
20
-69.1749989999999997
11
151.8499999999999943
21
-81.7249989999999968
0
LINE
8
BLACK
6
CONTINUOUS
10
152.2249999999999943
20
-81.3499989999999968
11
157.5250000000000057
21
-81.3499989999999968
0
LINE
8
BLACK
6
CONTINUOUS
10
157.5250000000000057
20
-81.3499989999999968
11
157.5250000000000057
21
-69.5499989999999997
0
LINE
8
BLACK
6
CONTINUOUS
10
157.5250000000000057
20
-69.5499989999999997
11
152.2249999999999943
21
-69.5499989999999997
0
LINE
8
BLACK
6
CONTINUOUS
10
152.2249999999999943
20
-69.5499989999999997
11
152.2249999999999943
21
-81.3499989999999968
0
ARC
8
BLACK
10
130.875
20
-68.2999999999999972
40
0.85
50
0.00000000
51
180.00000000
0
ARC
8
BLACK
10
136.2249999999999943
20
-69.5499999999999972
40
0.4999993955236346
50
-311.40954357
51
-138.59045643
0
ARC
8
BLACK
10
136.2249999999999943
20
-82.8499999999999943
40
0.4999993955236346
50
-221.40954357
51
-48.59045643
0
ARC
8
BLACK
10
149.5250000000000057
20
-69.5499999999999972
40
0.4999993955236346
50
-41.40954357
51
131.40954357
0
ARC
8
BLACK
10
149.5250000000000057
20
-82.8499999999999943
40
0.4999993955236346
50
-131.40954357
51
41.40954357
0
ARC
8
BLACK
10
154.875
20
-68.2999989999999997
40
0.85
50
0.00000000
51
180.00000000
0
CIRCLE
8
BLACK
10
128.2249999999999943
20
-69.5499999999999972
40
0.500625
0
CIRCLE
8
BLACK
10
128.2249999999999943
20
-81.3499999999999943
40
0.500625
0
CIRCLE
8
BLACK
10
133.5250000000000057
20
-69.5499999999999972
40
0.500625
0
CIRCLE
8
BLACK
10
133.5250000000000057
20
-81.3499999999999943
40
0.500625
0
CIRCLE
8
BLACK
10
152.2249999999999943
20
-69.5499989999999997
40
0.500625
0
CIRCLE
8
BLACK
10
152.2249999999999943
20
-81.3499989999999968
40
0.500625
0
CIRCLE
8
BLACK
10
157.5250000000000057
20
-69.5499989999999997
40
0.500625
0
CIRCLE
8
BLACK
10
157.5250000000000057
20
-81.3499989999999968
40
0.500625
0
LINE
8
BLACK
6
CONTINUOUS
10
202.5249999999999773
20
6.3192829999999995
11
202.5249999999999773
21
-6.3192829999999995
0
LINE
8
BLACK
6
CONTINUOUS
10
203.230717999999996
20
-7.0249989999999993
11
215.8692829999999958
21
-7.0249999999999995
0
LINE
8
BLACK
6
CONTINUOUS
10
215.8692829999999958
20
7.0249999999999995
11
203.2307169999999985
21
7.0249999999999995
0
LINE
8
BLACK
6
CONTINUOUS
10
216.5749989999999912
20
-6.3192819999999994
11
216.5749999999999886
21
6.3192829999999995
0
ARC
8
BLACK
10
202.8999999999999773
20
6.6499999999999995
40
0.4999993955236346
50
-311.40954357
51
-138.59045643
0
ARC
8
BLACK
10
202.8999999999999773
20
-6.6499999999999995
40
0.4999993955236346
50
-221.40954357
51
-48.59045643
0
ARC
8
BLACK
10
216.1999999999999886
20
6.6499999999999995
40
0.4999993955236346
50
-41.40954357
51
131.40954357
0
ARC
8
BLACK
10
216.1999999999999886
20
-6.6499999999999995
40
0.4999993955236346
50
-131.40954357
51
41.40954357
0
LINE
8
BLACK
6
CONTINUOUS
10
244.3249999999999886
20
-7.9000009999999996
11
244.3249999999999886
21
-6.8580009999999998
0
LINE
8
BLACK
6
CONTINUOUS
10
246.0249999999999773
20
-7.9000009999999996
11
246.0249999999999773
21
-6.8750009999999993
0
LINE
8
BLACK
6
CONTINUOUS
10
247.8249999999999886
20
-0.000001
11
250.1499999999999773
21
-0.000001
0
LINE
8
BLACK
6
CONTINUOUS
10
247.8999999999999773
20
-2.0000009999999997
11
250.1499999999999773
21
-2.0000009999999997
0
LINE
8
BLACK
6
CONTINUOUS
10
250.1500009999999747
20
6.3192819999999994
11
250.1499999999999773
21
-6.3192829999999995
0
LINE
8
BLACK
6
CONTINUOUS
10
250.8557169999999985
20
-7.0249999999999995
11
263.4942829999999958
21
-7.0249999999999995
0
LINE
8
BLACK
6
CONTINUOUS
10
263.4942819999999983
20
7.0249989999999993
11
250.8557169999999985
21
7.0249999999999995
0
LINE
8
BLACK
6
CONTINUOUS
10
264.1999999999999886
20
6.3192819999999994
11
264.1999999999999886
21
0.
0
LINE
8
BLACK
6
CONTINUOUS
10
264.1999999999999886
20
-6.3192829999999995
11
264.1999999999999886
21
-2.
0
LINE
8
BLACK
6
CONTINUOUS
10
266.4499999999999886
20
-2.
11
264.1999999999999886
21
-2.
0
LINE
8
BLACK
6
CONTINUOUS
10
266.5249999999999773
20
0.
11
264.1999999999999886
21
0.
0
LINE
8
BLACK
6
CONTINUOUS
10
268.3249999999999886
20
-7.8999999999999995
11
268.3249999999999886
21
-6.875
0
LINE
8
BLACK
6
CONTINUOUS
10
270.0249999999999773
20
-7.8999999999999995
11
270.0249999999999773
21
-6.8579999999999997
0
LINE
8
BLACK
6
CONTINUOUS
10
247.8249999999999886
20
5.1499989999999993
11
242.5249999999999773
21
5.1499989999999993
0
LINE
8
BLACK
6
CONTINUOUS
10
242.5249999999999773
20
5.1499989999999993
11
242.5249999999999773
21
-6.6500009999999996
0
LINE
8
BLACK
6
CONTINUOUS
10
242.5249999999999773
20
-6.6500009999999996
11
247.8249999999999886
21
-6.6500009999999996
0
LINE
8
BLACK
6
CONTINUOUS
10
247.8249999999999886
20
-6.6500009999999996
11
247.8249999999999886
21
5.1499989999999993
0
LINE
8
BLACK
6
CONTINUOUS
10
248.1999999999999886
20
5.5249989999999993
11
242.1499999999999773
21
5.5249989999999993
0
LINE
8
BLACK
6
CONTINUOUS
10
242.1499999999999773
20
5.5249989999999993
11
242.1499999999999773
21
-7.0250009999999996
0
LINE
8
BLACK
6
CONTINUOUS
10
242.1499999999999773
20
-7.0250009999999996
11
248.1999999999999886
21
-7.0250009999999996
0
LINE
8
BLACK
6
CONTINUOUS
10
248.1999999999999886
20
-7.0250009999999996
11
248.1999999999999886
21
5.5249989999999993
0
LINE
8
BLACK
6
CONTINUOUS
10
250.5249999999999773
20
6.6499999999999995
11
263.8249999999999886
21
6.6499999999999995
0
LINE
8
BLACK
6
CONTINUOUS
10
263.8249999999999886
20
6.6499999999999995
11
263.8249999999999886
21
-6.6499999999999995
0
LINE
8
BLACK
6
CONTINUOUS
10
263.8249999999999886
20
-6.6499999999999995
11
250.5249999999999773
21
-6.6499999999999995
0
LINE
8
BLACK
6
CONTINUOUS
10
250.5249999999999773
20
-6.6499999999999995
11
250.5249999999999773
21
6.6499999999999995
0
LINE
8
BLACK
6
CONTINUOUS
10
266.1499999999999773
20
5.5249999999999995
11
272.1999999999999886
21
5.5249999999999995
0
LINE
8
BLACK
6
CONTINUOUS
10
272.1999999999999886
20
5.5249999999999995
11
272.1999999999999886
21
-7.0249999999999995
0
LINE
8
BLACK
6
CONTINUOUS
10
272.1999999999999886
20
-7.0249999999999995
11
266.1499999999999773
21
-7.0249999999999995
0
LINE
8
BLACK
6
CONTINUOUS
10
266.1499999999999773
20
-7.0249999999999995
11
266.1499999999999773
21
5.5249999999999995
0
LINE
8
BLACK
6
CONTINUOUS
10
266.5249999999999773
20
5.1499999999999995
11
271.8249999999999886
21
5.1499999999999995
0
LINE
8
BLACK
6
CONTINUOUS
10
271.8249999999999886
20
5.1499999999999995
11
271.8249999999999886
21
-6.6499999999999995
0
LINE
8
BLACK
6
CONTINUOUS
10
271.8249999999999886
20
-6.6499999999999995
11
266.5249999999999773
21
-6.6499999999999995
0
LINE
8
BLACK
6
CONTINUOUS
10
266.5249999999999773
20
-6.6499999999999995
11
266.5249999999999773
21
5.1499999999999995
0
ARC
8
BLACK
10
245.1749999999999829
20
-7.9000009999999996
40
0.85
50
-180.00000000
51
-0.00000000
0
ARC
8
BLACK
10
250.5249999999999773
20
6.6499999999999995
40
0.4999993955236346
50
-311.40954357
51
-138.59045643
0
ARC
8
BLACK
10
250.5249999999999773
20
-6.6499999999999995
40
0.4999993955236346
50
-221.40954357
51
-48.59045643
0
ARC
8
BLACK
10
263.8249999999999886
20
6.6499999999999995
40
0.4999993955236346
50
-41.40954357
51
131.40954357
0
ARC
8
BLACK
10
263.8249999999999886
20
-6.6499999999999995
40
0.4999993955236346
50
-131.40954357
51
41.40954357
0
ARC
8
BLACK
10
269.1750000000000114
20
-7.8999999999999995
40
0.85
50
-180.00000000
51
-0.00000000
0
CIRCLE
8
BLACK
10
242.5249999999999773
20
5.1499989999999993
40
0.500625
0
CIRCLE
8
BLACK
10
242.5249999999999773
20
-6.6500009999999996
40
0.500625
0
CIRCLE
8
BLACK
10
247.8249999999999886
20
5.1499989999999993
40
0.500625
0
CIRCLE
8
BLACK
10
247.8249999999999886
20
-6.6500009999999996
40
0.500625
0
CIRCLE
8
BLACK
10
266.5249999999999773
20
5.1499999999999995
40
0.500625
0
CIRCLE
8
BLACK
10
266.5249999999999773
20
-6.6499999999999995
40
0.500625
0
CIRCLE
8
BLACK
10
271.8249999999999886
20
5.1499999999999995
40
0.500625
0
CIRCLE
8
BLACK
10
271.8249999999999886
20
-6.6499999999999995
40
0.500625
0
LINE
8
BLACK
6
CONTINUOUS
10
140.6124999999999829
20
-31.7807169999999992
11
140.6124999999999829
21
-44.4192830000000001
0
LINE
8
BLACK
6
CONTINUOUS
10
141.3182180000000017
20
-45.1249989999999954
11
153.9567830000000015
21
-45.125
0
LINE
8
BLACK
6
CONTINUOUS
10
153.9567830000000015
20
-31.0749999999999993
11
141.3182170000000042
21
-31.0749999999999993
0
LINE
8
BLACK
6
CONTINUOUS
10
154.6624989999999968
20
-44.4192819999999955
11
154.6624999999999943
21
-31.7807169999999992
0
ARC
8
BLACK
10
140.9874999999999829
20
-31.4499999999999993
40
0.4999993955236346
50
-311.40954357
51
-138.59045643
0
ARC
8
BLACK
10
140.9874999999999829
20
-44.75
40
0.4999993955236346
50
-221.40954357
51
-48.59045643
0
ARC
8
BLACK
10
154.2874999999999943
20
-31.4499999999999993
40
0.4999993955236346
50
-41.40954357
51
131.40954357
0
ARC
8
BLACK
10
154.2874999999999943
20
-44.75
40
0.4999993955236346
50
-131.40954357
51
41.40954357
0
LINE
8
BLACK
6
CONTINUOUS
10
69.1749999999999972
20
6.3192829999999995
11
69.1749999999999972
21
-6.3192829999999995
0
LINE
8
BLACK
6
CONTINUOUS
10
69.8807180000000017
20
-7.0249989999999993
11
82.5192830000000015
21
-7.0249999999999995
0
LINE
8
BLACK
6
CONTINUOUS
10
82.5192830000000015
20
7.0249999999999995
11
69.88071699999999
21
7.0249999999999995
0
LINE
8
BLACK
6
CONTINUOUS
10
83.2249989999999968
20
-6.3192819999999994
11
83.2249999999999943
21
6.3192829999999995
0
ARC
8
BLACK
10
69.5499999999999972
20
6.6499999999999995
40
0.4999993955236346
50
-311.40954357
51
-138.59045643
0
ARC
8
BLACK
10
69.5499999999999972
20
-6.6499999999999995
40
0.4999993955236346
50
-221.40954357
51
-48.59045643
0
ARC
8
BLACK
10
82.8499999999999943
20
6.6499999999999995
40
0.4999993955236346
50
-41.40954357
51
131.40954357
0
ARC
8
BLACK
10
82.8499999999999943
20
-6.6499999999999995
40
0.4999993955236346
50
-131.40954357
51
41.40954357
0
LINE
8
BLACK
6
CONTINUOUS
10
102.5124999999999886
20
-31.7807169999999992
11
102.5124999999999886
21
-44.4192830000000001
0
LINE
8
BLACK
6
CONTINUOUS
10
103.2182179999999931
20
-45.1249989999999954
11
115.856782999999993
21
-45.125
0
LINE
8
BLACK
6
CONTINUOUS
10
115.856782999999993
20
-31.0749999999999993
11
103.2182169999999957
21
-31.0749999999999993
0
LINE
8
BLACK
6
CONTINUOUS
10
116.5624989999999883
20
-44.4192819999999955
11
116.5625
21
-31.7807169999999992
0
ARC
8
BLACK
10
102.8874999999999886
20
-31.4499999999999993
40
0.4999993955236346
50
-311.40954357
51
-138.59045643
0
ARC
8
BLACK
10
102.8874999999999886
20
-44.75
40
0.4999993955236346
50
-221.40954357
51
-48.59045643
0
ARC
8
BLACK
10
116.1875
20
-31.4499999999999993
40
0.4999993955236346
50
-41.40954357
51
131.40954357
0
ARC
8
BLACK
10
116.1875
20
-44.75
40
0.4999993955236346
50
-131.40954357
51
41.40954357
0
LINE
8
BLACK
6
CONTINUOUS
10
121.5625
20
-31.7807169999999992
11
121.5625
21
-44.4192830000000001
0
LINE
8
BLACK
6
CONTINUOUS
10
122.2682179999999903
20
-45.1249989999999954
11
134.9067829999999901
21
-45.125
0
LINE
8
BLACK
6
CONTINUOUS
10
134.9067829999999901
20
-31.0749999999999993
11
122.2682169999999928
21
-31.0749999999999993
0
LINE
8
BLACK
6
CONTINUOUS
10
135.6124989999999855
20
-44.4192819999999955
11
135.6124999999999829
21
-31.7807169999999992
0
ARC
8
BLACK
10
121.9375
20
-31.4499999999999993
40
0.4999993955236346
50
-311.40954357
51
-138.59045643
0
ARC
8
BLACK
10
121.9375
20
-44.75
40
0.4999993955236346
50
-221.40954357
51
-48.59045643
0
ARC
8
BLACK
10
135.2374999999999829
20
-31.4499999999999993
40
0.4999993955236346
50
-41.40954357
51
131.40954357
0
ARC
8
BLACK
10
135.2374999999999829
20
-44.75
40
0.4999993955236346
50
-131.40954357
51
41.40954357
0
LINE
8
BLACK
6
CONTINUOUS
10
159.6624999999999943
20
-31.7807169999999992
11
159.6624999999999943
21
-44.4192830000000001
0
LINE
8
BLACK
6
CONTINUOUS
10
160.3682179999999846
20
-45.1249989999999954
11
173.0067829999999844
21
-45.125
0
LINE
8
BLACK
6
CONTINUOUS
10
173.0067829999999844
20
-31.0749999999999993
11
160.3682169999999871
21
-31.0749999999999993
0
LINE
8
BLACK
6
CONTINUOUS
10
173.7124989999999798
20
-44.4192819999999955
11
173.7125000000000057
21
-31.7807169999999992
0
ARC
8
BLACK
10
160.0374999999999943
20
-31.4499999999999993
40
0.4999993955236346
50
-311.40954357
51
-138.59045643
0
ARC
8
BLACK
10
160.0374999999999943
20
-44.75
40
0.4999993955236346
50
-221.40954357
51
-48.59045643
0
ARC
8
BLACK
10
173.3375000000000057
20
-31.4499999999999993
40
0.4999993955236346
50
-41.40954357
51
131.40954357
0
ARC
8
BLACK
10
173.3375000000000057
20
-44.75
40
0.4999993955236346
50
-131.40954357
51
41.40954357
0
LINE
8
BLACK
6
CONTINUOUS
10
193.0000009999999975
20
-12.7307179999999995
11
193.
21
-25.3692829999999994
0
LINE
8
BLACK
6
CONTINUOUS
10
193.7057169999999928
20
-26.0749999999999993
11
206.3442829999999901
21
-26.0749999999999993
0
LINE
8
BLACK
6
CONTINUOUS
10
206.3442819999999926
20
-12.0250009999999996
11
193.7057169999999928
21
-12.0249999999999986
0
LINE
8
BLACK
6
CONTINUOUS
10
207.0499999999999829
20
-25.3692829999999994
11
207.0499999999999829
21
-12.7307170000000003
0
ARC
8
BLACK
10
193.375
20
-12.3999999999999986
40
0.4999993955236346
50
-311.40954357
51
-138.59045643
0
ARC
8
BLACK
10
193.375
20
-25.6999999999999993
40
0.4999993955236346
50
-221.40954357
51
-48.59045643
0
ARC
8
BLACK
10
206.6749999999999829
20
-12.3999999999999986
40
0.4999993955236346
50
-41.40954357
51
131.40954357
0
ARC
8
BLACK
10
206.6749999999999829
20
-25.6999999999999993
40
0.4999993955236346
50
-131.40954357
51
41.40954357
0
LINE
8
BLACK
6
CONTINUOUS
10
126.3249999999999886
20
6.3192829999999995
11
126.3249999999999886
21
-6.3192829999999995
0
LINE
8
BLACK
6
CONTINUOUS
10
127.0307179999999931
20
-7.0249989999999993
11
139.6692830000000072
21
-7.0249999999999995
0
LINE
8
BLACK
6
CONTINUOUS
10
139.6692830000000072
20
7.0249999999999995
11
127.0307169999999957
21
7.0249999999999995
0
LINE
8
BLACK
6
CONTINUOUS
10
140.3749990000000025
20
-6.3192819999999994
11
140.375
21
6.3192829999999995
0
ARC
8
BLACK
10
126.6999999999999886
20
6.6499999999999995
40
0.4999993955236346
50
-311.40954357
51
-138.59045643
0
ARC
8
BLACK
10
126.6999999999999886
20
-6.6499999999999995
40
0.4999993955236346
50
-221.40954357
51
-48.59045643
0
ARC
8
BLACK
10
140.
20
6.6499999999999995
40
0.4999993955236346
50
-41.40954357
51
131.40954357
0
ARC
8
BLACK
10
140.
20
-6.6499999999999995
40
0.4999993955236346
50
-131.40954357
51
41.40954357
0
LINE
8
BLACK
6
CONTINUOUS
10
45.3624999999999972
20
-31.7807169999999992
11
45.3624999999999972
21
-44.4192830000000001
0
LINE
8
BLACK
6
CONTINUOUS
10
46.0682179999999946
20
-45.1249989999999954
11
58.7067829999999944
21
-45.125
0
LINE
8
BLACK
6
CONTINUOUS
10
58.7067829999999944
20
-31.0749999999999993
11
46.0682169999999971
21
-31.0749999999999993
0
LINE
8
BLACK
6
CONTINUOUS
10
59.4124989999999968
20
-44.4192819999999955
11
59.4124999999999943
21
-31.7807169999999992
0
ARC
8
BLACK
10
45.7374999999999972
20
-31.4499999999999993
40
0.4999993955236346
50
-311.40954357
51
-138.59045643
0
ARC
8
BLACK
10
45.7374999999999972
20
-44.75
40
0.4999993955236346
50
-221.40954357
51
-48.59045643
0
ARC
8
BLACK
10
59.0374999999999943
20
-31.4499999999999993
40
0.4999993955236346
50
-41.40954357
51
131.40954357
0
ARC
8
BLACK
10
59.0374999999999943
20
-44.75
40
0.4999993955236346
50
-131.40954357
51
41.40954357
0
LINE
8
BLACK
6
CONTINUOUS
10
231.1000009999999918
20
-12.7307179999999995
11
231.0999999999999943
21
-25.3692829999999994
0
LINE
8
BLACK
6
CONTINUOUS
10
231.8057169999999871
20
-26.0749999999999993
11
244.4442829999999844
21
-26.0749999999999993
0
LINE
8
BLACK
6
CONTINUOUS
10
244.444281999999987
20
-12.0250009999999996
11
231.8057169999999871
21
-12.0249999999999986
0
LINE
8
BLACK
6
CONTINUOUS
10
245.1499999999999773
20
-25.3692829999999994
11
245.1499999999999773
21
-12.7307170000000003
0
ARC
8
BLACK
10
231.4749999999999943
20
-12.3999999999999986
40
0.4999993955236346
50
-311.40954357
51
-138.59045643
0
ARC
8
BLACK
10
231.4749999999999943
20
-25.6999999999999993
40
0.4999993955236346
50
-221.40954357
51
-48.59045643
0
ARC
8
BLACK
10
244.7749999999999773
20
-12.3999999999999986
40
0.4999993955236346
50
-41.40954357
51
131.40954357
0
ARC
8
BLACK
10
244.7749999999999773
20
-25.6999999999999993
40
0.4999993955236346
50
-131.40954357
51
41.40954357
0
LINE
8
BLACK
6
CONTINUOUS
10
54.8874999999999957
20
-50.8307649999999995
11
54.8874999999999957
21
-63.4693309999999968
0
LINE
8
BLACK
6
CONTINUOUS
10
55.5932180000000002
20
-64.1750469999999922
11
68.231782999999993
21
-64.1750480000000039
0
LINE
8
BLACK
6
CONTINUOUS
10
68.231782999999993
20
-50.1250479999999996
11
55.5932169999999957
21
-50.1250479999999996
0
LINE
8
BLACK
6
CONTINUOUS
10
68.9374990000000025
20
-63.4693299999999994
11
68.9375
21
-50.8307649999999995
0
ARC
8
BLACK
10
55.2624999999999957
20
-50.5000479999999996
40
0.4999993955236346
50
-311.40954357
51
-138.59045643
0
ARC
8
BLACK
10
55.2624999999999957
20
-63.8000479999999968
40
0.4999993955236346
50
-221.40954357
51
-48.59045643
0
ARC
8
BLACK
10
68.5625
20
-50.5000479999999996
40
0.4999993955236346
50
-41.40954357
51
131.40954357
0
ARC
8
BLACK
10
68.5625
20
-63.8000479999999968
40
0.4999993955236346
50
-131.40954357
51
41.40954357
0
LINE
8
BLACK
6
CONTINUOUS
10
97.7500009999999975
20
-12.7307179999999995
11
97.75
21
-25.3692829999999994
0
LINE
8
BLACK
6
CONTINUOUS
10
98.4557169999999928
20
-26.0749999999999993
11
111.0942829999999901
21
-26.0749999999999993
0
LINE
8
BLACK
6
CONTINUOUS
10
111.0942819999999926
20
-12.0250009999999996
11
98.4557169999999928
21
-12.0249999999999986
0
LINE
8
BLACK
6
CONTINUOUS
10
111.7999999999999972
20
-25.3692829999999994
11
111.7999999999999972
21
-12.7307170000000003
0
ARC
8
BLACK
10
98.125
20
-12.3999999999999986
40
0.4999993955236346
50
-311.40954357
51
-138.59045643
0
ARC
8
BLACK
10
98.125
20
-25.6999999999999993
40
0.4999993955236346
50
-221.40954357
51
-48.59045643
0
ARC
8
BLACK
10
111.4249999999999972
20
-12.3999999999999986
40
0.4999993955236346
50
-41.40954357
51
131.40954357
0
ARC
8
BLACK
10
111.4249999999999972
20
-25.6999999999999993
40
0.4999993955236346
50
-131.40954357
51
41.40954357
0
LINE
8
BLACK
6
CONTINUOUS
10
-7.0249999999999995
20
6.3192829999999995
11
-7.0249999999999995
21
-6.3192829999999995
0
LINE
8
BLACK
6
CONTINUOUS
10
-6.3192819999999994
20
-7.0249989999999993
11
6.3192829999999995
21
-7.0249999999999995
0
LINE
8
BLACK
6
CONTINUOUS
10
6.3192829999999995
20
7.0249999999999995
11
-6.3192829999999995
21
7.0249999999999995
0
LINE
8
BLACK
6
CONTINUOUS
10
7.0249989999999993
20
-6.3192819999999994
11
7.0249999999999995
21
6.3192829999999995
0
ARC
8
BLACK
10
-6.6499999999999995
20
6.6499999999999995
40
0.4999993955236346
50
-311.40954357
51
-138.59045643
0
ARC
8
BLACK
10
-6.6499999999999995
20
-6.6499999999999995
40
0.4999993955236346
50
-221.40954357
51
-48.59045643
0
ARC
8
BLACK
10
6.6499999999999995
20
6.6499999999999995
40
0.4999993955236346
50
-41.40954357
51
131.40954357
0
ARC
8
BLACK
10
6.6499999999999995
20
-6.6499999999999995
40
0.4999993955236346
50
-131.40954357
51
41.40954357
0
LINE
8
BLACK
6
CONTINUOUS
10
59.6500009999999961
20
-12.7307179999999995
11
59.6499999999999986
21
-25.3692829999999994
0
LINE
8
BLACK
6
CONTINUOUS
10
60.3557169999999985
20
-26.0749999999999993
11
72.9942829999999958
21
-26.0749999999999993
0
LINE
8
BLACK
6
CONTINUOUS
10
72.9942819999999983
20
-12.0250009999999996
11
60.3557169999999985
21
-12.0249999999999986
0
LINE
8
BLACK
6
CONTINUOUS
10
73.7000000000000028
20
-25.3692829999999994
11
73.7000000000000028
21
-12.7307170000000003
0
ARC
8
BLACK
10
60.0249999999999986
20
-12.3999999999999986
40
0.4999993955236346
50
-311.40954357
51
-138.59045643
0
ARC
8
BLACK
10
60.0249999999999986
20
-25.6999999999999993
40
0.4999993955236346
50
-221.40954357
51
-48.59045643
0
ARC
8
BLACK
10
73.3250000000000028
20
-12.3999999999999986
40
0.4999993955236346
50
-41.40954357
51
131.40954357
0
ARC
8
BLACK
10
73.3250000000000028
20
-25.6999999999999993
40
0.4999993955236346
50
-131.40954357
51
41.40954357
0
LINE
8
BLACK
6
CONTINUOUS
10
19.1687510000000003
20
-69.8807180000000017
11
19.1687499999999993
21
-82.5192830000000015
0
LINE
8
BLACK
6
CONTINUOUS
10
19.8744669999999992
20
-83.2249999999999943
11
32.5130330000000001
21
-83.2249999999999943
0
LINE
8
BLACK
6
CONTINUOUS
10
32.5130319999999955
20
-69.1750009999999946
11
19.8744669999999992
21
-69.1749999999999972
0
LINE
8
BLACK
6
CONTINUOUS
10
33.21875
20
-82.5192830000000015
11
33.21875
21
-69.88071699999999
0
ARC
8
BLACK
10
19.5437499999999993
20
-69.5499999999999972
40
0.4999993955236346
50
-311.40954357
51
-138.59045643
0
ARC
8
BLACK
10
19.5437499999999993
20
-82.8499999999999943
40
0.4999993955236346
50
-221.40954357
51
-48.59045643
0
ARC
8
BLACK
10
32.84375
20
-69.5499999999999972
40
0.4999993955236346
50
-41.40954357
51
131.40954357
0
ARC
8
BLACK
10
32.84375
20
-82.8499999999999943
40
0.4999993955236346
50
-131.40954357
51
41.40954357
0
LINE
8
BLACK
6
CONTINUOUS
10
169.1875
20
-50.8307169999999999
11
169.1875
21
-63.4692829999999972
0
LINE
8
BLACK
6
CONTINUOUS
10
169.8932179999999903
20
-64.1749989999999997
11
182.5317829999999901
21
-64.1749999999999972
0
LINE
8
BLACK
6
CONTINUOUS
10
182.5317829999999901
20
-50.125
11
169.8932169999999928
21
-50.125
0
LINE
8
BLACK
6
CONTINUOUS
10
183.2374989999999855
20
-63.4692819999999998
11
183.2374999999999829
21
-50.8307169999999999
0
ARC
8
BLACK
10
169.5625
20
-50.5
40
0.4999993955236346
50
-311.40954357
51
-138.59045643
0
ARC
8
BLACK
10
169.5625
20
-63.7999999999999972
40
0.4999993955236346
50
-221.40954357
51
-48.59045643
0
ARC
8
BLACK
10
182.8624999999999829
20
-50.5
40
0.4999993955236346
50
-41.40954357
51
131.40954357
0
ARC
8
BLACK
10
182.8624999999999829
20
-63.7999999999999972
40
0.4999993955236346
50
-131.40954357
51
41.40954357
0
LINE
8
BLACK
6
CONTINUOUS
10
150.1374999999999886
20
-50.8307649999999995
11
150.1374999999999886
21
-63.4693309999999968
0
LINE
8
BLACK
6
CONTINUOUS
10
150.8432180000000074
20
-64.1750469999999922
11
163.4817829999999788
21
-64.1750480000000039
0
LINE
8
BLACK
6
CONTINUOUS
10
163.4817829999999788
20
-50.1250479999999996
11
150.8432169999999815
21
-50.1250479999999996
0
LINE
8
BLACK
6
CONTINUOUS
10
164.1874990000000025
20
-63.4693299999999994
11
164.1875
21
-50.8307649999999995
0
ARC
8
BLACK
10
150.5124999999999886
20
-50.5000479999999996
40
0.4999993955236346
50
-311.40954357
51
-138.59045643
0
ARC
8
BLACK
10
150.5124999999999886
20
-63.8000479999999968
40
0.4999993955236346
50
-221.40954357
51
-48.59045643
0
ARC
8
BLACK
10
163.8125
20
-50.5000479999999996
40
0.4999993955236346
50
-41.40954357
51
131.40954357
0
ARC
8
BLACK
10
163.8125
20
-63.8000479999999968
40
0.4999993955236346
50
-131.40954357
51
41.40954357
0
LINE
8
BLACK
6
CONTINUOUS
10
164.4250009999999804
20
-69.8807180000000017
11
164.4249999999999829
21
-82.5192830000000015
0
LINE
8
BLACK
6
CONTINUOUS
10
165.1307170000000042
20
-83.2249999999999943
11
177.7692830000000015
21
-83.2249999999999943
0
LINE
8
BLACK
6
CONTINUOUS
10
177.769282000000004
20
-69.1750009999999946
11
165.1307170000000042
21
-69.1749999999999972
0
LINE
8
BLACK
6
CONTINUOUS
10
178.4749999999999943
20
-82.5192830000000015
11
178.4749999999999943
21
-69.88071699999999
0
ARC
8
BLACK
10
164.7999999999999829
20
-69.5499999999999972
40
0.4999993955236346
50
-311.40954357
51
-138.59045643
0
ARC
8
BLACK
10
164.7999999999999829
20
-82.8499999999999943
40
0.4999993955236346
50
-221.40954357
51
-48.59045643
0
ARC
8
BLACK
10
178.0999999999999943
20
-69.5499999999999972
40
0.4999993955236346
50
-41.40954357
51
131.40954357
0
ARC
8
BLACK
10
178.0999999999999943
20
-82.8499999999999943
40
0.4999993955236346
50
-131.40954357
51
41.40954357
0
LINE
8
BLACK
6
CONTINUOUS
10
250.1502169999999978
20
-69.8807180000000017
11
250.1502160000000003
21
-82.5192830000000015
0
LINE
8
BLACK
6
CONTINUOUS
10
250.8559329999999932
20
-83.2249999999999943
11
263.4944989999999621
21
-83.2249999999999943
0
LINE
8
BLACK
6
CONTINUOUS
10
263.4944979999999646
20
-69.1750009999999946
11
250.8559329999999932
21
-69.1749999999999972
0
LINE
8
BLACK
6
CONTINUOUS
10
264.2002160000000117
20
-82.5192830000000015
11
264.2002160000000117
21
-69.88071699999999
0
ARC
8
BLACK
10
250.5252160000000003
20
-69.5499999999999972
40
0.4999993955236346
50
-311.40954357
51
-138.59045643
0
ARC
8
BLACK
10
250.5252160000000003
20
-82.8499999999999943
40
0.4999993955236346
50
-221.40954357
51
-48.59045643
0
ARC
8
BLACK
10
263.8252160000000117
20
-69.5499999999999972
40
0.4999993955236346
50
-41.40954357
51
131.40954357
0
ARC
8
BLACK
10
263.8252160000000117
20
-82.8499999999999943
40
0.4999993955236346
50
-131.40954357
51
41.40954357
0
LINE
8
BLACK
6
CONTINUOUS
10
112.0374999999999943
20
-50.8307169999999999
11
112.0374999999999943
21
-63.4692829999999972
0
LINE
8
BLACK
6
CONTINUOUS
10
112.7432179999999988
20
-64.1749989999999997
11
125.3817829999999987
21
-64.1749999999999972
0
LINE
8
BLACK
6
CONTINUOUS
10
125.3817829999999987
20
-50.125
11
112.7432170000000013
21
-50.125
0
LINE
8
BLACK
6
CONTINUOUS
10
126.087498999999994
20
-63.4692819999999998
11
126.0874999999999915
21
-50.8307169999999999
0
ARC
8
BLACK
10
112.4124999999999943
20
-50.5
40
0.4999993955236346
50
-311.40954357
51
-138.59045643
0
ARC
8
BLACK
10
112.4124999999999943
20
-63.7999999999999972
40
0.4999993955236346
50
-221.40954357
51
-48.59045643
0
ARC
8
BLACK
10
125.7124999999999915
20
-50.5
40
0.4999993955236346
50
-41.40954357
51
131.40954357
0
ARC
8
BLACK
10
125.7124999999999915
20
-63.7999999999999972
40
0.4999993955236346
50
-131.40954357
51
41.40954357
0
LINE
8
BLACK
6
CONTINUOUS
10
107.2749999999999915
20
6.3192829999999995
11
107.2749999999999915
21
-6.3192829999999995
0
LINE
8
BLACK
6
CONTINUOUS
10
107.980717999999996
20
-7.0249989999999993
11
120.6192829999999958
21
-7.0249999999999995
0
LINE
8
BLACK
6
CONTINUOUS
10
120.6192829999999958
20
7.0249999999999995
11
107.9807169999999985
21
7.0249999999999995
0
LINE
8
BLACK
6
CONTINUOUS
10
121.3249989999999912
20
-6.3192819999999994
11
121.3249999999999886
21
6.3192829999999995
0
ARC
8
BLACK
10
107.6499999999999915
20
6.6499999999999995
40
0.4999993955236346
50
-311.40954357
51
-138.59045643
0
ARC
8
BLACK
10
107.6499999999999915
20
-6.6499999999999995
40
0.4999993955236346
50
-221.40954357
51
-48.59045643
0
ARC
8
BLACK
10
120.9499999999999886
20
6.6499999999999995
40
0.4999993955236346
50
-41.40954357
51
131.40954357
0
ARC
8
BLACK
10
120.9499999999999886
20
-6.6499999999999995
40
0.4999993955236346
50
-131.40954357
51
41.40954357
0
LINE
8
BLACK
6
CONTINUOUS
10
188.2374999999999829
20
-50.8307169999999999
11
188.2374999999999829
21
-63.4692829999999972
0
LINE
8
BLACK
6
CONTINUOUS
10
188.9432180000000017
20
-64.1749989999999997
11
201.5817830000000015
21
-64.1749999999999972
0
LINE
8
BLACK
6
CONTINUOUS
10
201.5817830000000015
20
-50.125
11
188.9432170000000042
21
-50.125
0
LINE
8
BLACK
6
CONTINUOUS
10
202.2874989999999968
20
-63.4692819999999998
11
202.2874999999999943
21
-50.8307169999999999
0
ARC
8
BLACK
10
188.6124999999999829
20
-50.5
40
0.4999993955236346
50
-311.40954357
51
-138.59045643
0
ARC
8
BLACK
10
188.6124999999999829
20
-63.7999999999999972
40
0.4999993955236346
50
-221.40954357
51
-48.59045643
0
ARC
8
BLACK
10
201.9124999999999943
20
-50.5
40
0.4999993955236346
50
-41.40954357
51
131.40954357
0
ARC
8
BLACK
10
201.9124999999999943
20
-63.7999999999999972
40
0.4999993955236346
50
-131.40954357
51
41.40954357
0
LINE
8
BLACK
6
CONTINUOUS
10
212.050184999999999
20
-69.8807819999999964
11
212.0501840000000016
21
-82.5193469999999962
0
LINE
8
BLACK
6
CONTINUOUS
10
212.7559009999999944
20
-83.2250640000000033
11
225.3944669999999917
21
-83.2250640000000033
0
LINE
8
BLACK
6
CONTINUOUS
10
225.3944659999999942
20
-69.1750650000000036
11
212.7559009999999944
21
-69.1750639999999919
0
LINE
8
BLACK
6
CONTINUOUS
10
226.1001839999999845
20
-82.5193469999999962
11
226.1001839999999845
21
-69.8807809999999989
0
ARC
8
BLACK
10
212.4251840000000016
20
-69.5500639999999919
40
0.4999993955236346
50
-311.40954357
51
-138.59045643
0
ARC
8
BLACK
10
212.4251840000000016
20
-82.8500640000000033
40
0.4999993955236346
50
-221.40954357
51
-48.59045643
0
ARC
8
BLACK
10
225.7251839999999845
20
-69.5500639999999919
40
0.4999993955236346
50
-41.40954357
51
131.40954357
0
ARC
8
BLACK
10
225.7251839999999845
20
-82.8500640000000033
40
0.4999993955236346
50
-131.40954357
51
41.40954357
0
LINE
8
BLACK
6
CONTINUOUS
10
83.4624999999999915
20
-31.7807169999999992
11
83.4624999999999915
21
-44.4192830000000001
0
LINE
8
BLACK
6
CONTINUOUS
10
84.168217999999996
20
-45.1249989999999954
11
96.8067829999999958
21
-45.125
0
LINE
8
BLACK
6
CONTINUOUS
10
96.8067829999999958
20
-31.0749999999999993
11
84.1682169999999985
21
-31.0749999999999993
0
LINE
8
BLACK
6
CONTINUOUS
10
97.5124989999999912
20
-44.4192819999999955
11
97.5124999999999886
21
-31.7807169999999992
0
ARC
8
BLACK
10
83.8374999999999915
20
-31.4499999999999993
40
0.4999993955236346
50
-311.40954357
51
-138.59045643
0
ARC
8
BLACK
10
83.8374999999999915
20
-44.75
40
0.4999993955236346
50
-221.40954357
51
-48.59045643
0
ARC
8
BLACK
10
97.1374999999999886
20
-31.4499999999999993
40
0.4999993955236346
50
-41.40954357
51
131.40954357
0
ARC
8
BLACK
10
97.1374999999999886
20
-44.75
40
0.4999993955236346
50
-131.40954357
51
41.40954357
0
LINE
8
BLACK
6
CONTINUOUS
10
92.9874999999999972
20
-50.8307649999999995
11
92.9874999999999972
21
-63.4693309999999968
0
LINE
8
BLACK
6
CONTINUOUS
10
93.6932180000000017
20
-64.1750469999999922
11
106.3317830000000015
21
-64.1750480000000039
0
LINE
8
BLACK
6
CONTINUOUS
10
106.3317830000000015
20
-50.1250479999999996
11
93.69321699999999
21
-50.1250479999999996
0
LINE
8
BLACK
6
CONTINUOUS
10
107.0374989999999968
20
-63.4693299999999994
11
107.0374999999999943
21
-50.8307649999999995
0
ARC
8
BLACK
10
93.3624999999999972
20
-50.5000479999999996
40
0.4999993955236346
50
-311.40954357
51
-138.59045643
0
ARC
8
BLACK
10
93.3624999999999972
20
-63.8000479999999968
40
0.4999993955236346
50
-221.40954357
51
-48.59045643
0
ARC
8
BLACK
10
106.6624999999999943
20
-50.5000479999999996
40
0.4999993955236346
50
-41.40954357
51
131.40954357
0
ARC
8
BLACK
10
106.6624999999999943
20
-63.8000479999999968
40
0.4999993955236346
50
-131.40954357
51
41.40954357
0
LINE
8
BLACK
6
CONTINUOUS
10
-4.6437489999999997
20
-69.8807180000000017
11
-4.6437499999999998
21
-82.5192830000000015
0
LINE
8
BLACK
6
CONTINUOUS
10
-3.9380329999999999
20
-83.2249999999999943
11
8.7005330000000001
21
-83.2249999999999943
0
LINE
8
BLACK
6
CONTINUOUS
10
8.700531999999999
20
-69.1750009999999946
11
-3.9380329999999999
21
-69.1749999999999972
0
LINE
8
BLACK
6
CONTINUOUS
10
9.40625
20
-82.5192830000000015
11
9.40625
21
-69.88071699999999
0
ARC
8
BLACK
10
-4.2687499999999998
20
-69.5499999999999972
40
0.4999993955236346
50
-311.40954357
51
-138.59045643
0
ARC
8
BLACK
10
-4.2687499999999998
20
-82.8499999999999943
40
0.4999993955236346
50
-221.40954357
51
-48.59045643
0
ARC
8
BLACK
10
9.03125
20
-69.5499999999999972
40
0.4999993955236346
50
-41.40954357
51
131.40954357
0
ARC
8
BLACK
10
9.03125
20
-82.8499999999999943
40
0.4999993955236346
50
-131.40954357
51
41.40954357
  0
ENDSEC
  0
EOF
