  0
SECTION
  2
HEADER
  9
$ANGBASE
  50
0.0
  9
$ANGDIR
  70
1
  9
$MEASUREMENT
  70
1
  0
ENDSEC
  0
SECTION
  2
TABLES
  0
TABLE
  2
LTYPE
  70
4
  0
LTYPE
  5
40F
  2
CONTINUOUS
  70
0
  3
Solid line
  72
65
  73
0
  40
0.0
  0
LTYPE
  5
410
  2
DASHDOT
 70
0
  3
Dash Dot ____ _ ____ _
 72
65
 73
4
 40
2.0
 49
1.25
 49
-0.25
 49
0.25
 49
-0.25
  0
LTYPE
  5
411
  2
DASHED
 70
0
  3
Dashed __ __ __ __ __
 72
65
 73
2
 40
0.75
 49
0.5
 49
-0.25
  0
LTYPE
  5
43B
  2
DOTTED
 70
0
  3
Dotted .  .  .  .
 72
65
 73
2
 40
0.2
 49
0.0
 49
-0.2
  0
ENDTAB
  0
TABLE
  2
STYLE
  70
4
  0
STYLE
  2
KICAD
  70
0
  40
0
  41
1
  42
1
  50
0
  71
0
  3
isocp.shx
  0
STYLE
  2
KICADB
  70
0
  40
0
  41
1
  42
1
  50
0
  71
0
  3
isocp.shx
  0
STYLE
  2
KICADI
  70
0
  40
0
  41
1
  42
1
  50
15
  71
0
  3
isocp.shx
  0
STYLE
  2
KICADBI
  70
0
  40
0
  41
1
  42
1
  50
15
  71
0
  3
isocp.shx
  0
ENDTAB
  0
TABLE
  2
LAYER
  70
1
  0
LAYER
  2
BLACK
  70
0
  62
7
  6
CONTINUOUS
  0
ENDTAB
  0
ENDSEC
  0
SECTION
  2
ENTITIES
0
CIRCLE
8
BLACK
10
272.5937000000000126
20
-47.3024500000000003
40
1.2
0
LINE
8
BLACK
6
CONTINUOUS
10
276.2300920000000133
20
-48.5024499999999961
11
272.5937000000000126
21
-48.5024499999999961
0
CIRCLE
8
BLACK
10
202.4060800000000029
20
-78.8788399999999967
40
2.0499999999999998
0
LINE
8
BLACK
6
CONTINUOUS
10
62.2436959999999999
20
-82.1531939999999992
11
62.2436959999999999
21
-85.758381
0
LINE
8
BLACK
6
CONTINUOUS
10
-5.8885999999999994
20
-46.1024499999999975
11
-9.5249919999999992
21
-46.1024499999999975
0
LINE
8
BLACK
6
CONTINUOUS
10
276.2247679999999832
20
-17.0000159999999987
11
272.6528959999999984
21
-17.0000159999999987
0
LINE
8
BLACK
6
CONTINUOUS
10
-5.9531199999999993
20
-21.1000160000000001
11
-9.5245439999999988
21
-21.1000160000000001
0
LINE
8
BLACK
6
CONTINUOUS
10
276.2247679999999832
20
-21.1000160000000001
11
272.6528959999999984
21
-21.1000160000000001
0
CIRCLE
8
BLACK
10
64.2936959999999971
20
-78.8788399999999967
40
2.0499999999999998
0
CIRCLE
8
BLACK
10
272.6528959999999984
20
-19.0500159999999994
40
2.0499999999999998
0
LINE
8
BLACK
6
CONTINUOUS
10
200.3564199999999857
20
-82.1531939999999992
11
200.3564199999999857
21
-85.7249279999999914
0
CIRCLE
8
BLACK
10
-5.9531199999999993
20
-19.0500159999999994
40
2.0499999999999998
0
CIRCLE
8
BLACK
10
123.8248959999999954
20
5.9195279999999997
40
2.0499999999999998
0
LINE
8
BLACK
6
CONTINUOUS
10
276.2300920000000133
20
-46.1024499999999975
11
272.5937000000000126
21
-46.1024499999999975
0
LINE
8
BLACK
6
CONTINUOUS
10
66.3436959999999942
20
-82.1531939999999992
11
66.3436959999999942
21
-85.7249279999999914
0
LINE
8
BLACK
6
CONTINUOUS
10
-5.9531199999999993
20
-17.0000159999999987
11
-9.5245439999999988
21
-17.0000159999999987
0
LINE
8
BLACK
6
CONTINUOUS
10
125.8748959999999926
20
9.491261999999999
11
125.8748959999999926
21
5.9195279999999997
0
LINE
8
BLACK
6
CONTINUOUS
10
-9.5250000000000004
20
9.5250000000000004
11
276.2249999999999659
21
9.5250000000000004
0
LINE
8
BLACK
6
CONTINUOUS
10
276.2249999999999659
20
9.5250000000000004
11
276.2249999999999659
21
-85.7249999999999943
0
LINE
8
BLACK
6
CONTINUOUS
10
276.2249999999999659
20
-85.7249999999999943
11
-9.5250000000000004
21
-85.7249999999999943
0
LINE
8
BLACK
6
CONTINUOUS
10
-9.5250000000000004
20
-85.7249999999999943
11
-9.5250000000000004
21
9.5250000000000004
0
LINE
8
BLACK
6
CONTINUOUS
10
-5.8885999999999994
20
-48.5024499999999961
11
-9.5249919999999992
21
-48.5024499999999961
0
CIRCLE
8
BLACK
10
64.2936959999999971
20
-82.1531939999999992
40
2.0499999999999998
0
CIRCLE
8
BLACK
10
202.4064199999999971
20
-82.1531939999999992
40
2.0499999999999998
0
LINE
8
BLACK
6
CONTINUOUS
10
121.7748959999999983
20
9.491261999999999
11
121.7748959999999983
21
5.9195279999999997
0
CIRCLE
8
BLACK
10
-5.8885999999999994
20
-47.3024500000000003
40
1.2
0
LINE
8
BLACK
6
CONTINUOUS
10
87.25
20
-5.
11
87.25
21
5.
0
LINE
8
BLACK
6
CONTINUOUS
10
88.25
20
6.
11
102.25
21
6.
0
LINE
8
BLACK
6
CONTINUOUS
10
102.25
20
-6.
11
88.25
21
-6.
0
LINE
8
BLACK
6
CONTINUOUS
10
103.25
20
5.
11
103.25
21
-5.
0
ARC
8
BLACK
10
88.25
20
5.
40
1.
50
90.00000000
51
180.00000000
0
ARC
8
BLACK
10
88.25
20
-5.
40
1.
50
-180.00000000
51
-90.00000000
0
ARC
8
BLACK
10
102.2500009999999975
20
5.0000010000000001
40
0.9999990000004999
50
-0.00005730
51
90.00005730
0
ARC
8
BLACK
10
102.2500009999999975
20
-5.0000010000000001
40
0.9999990000004999
50
-90.00005730
51
0.00005730
0
LINE
8
BLACK
6
CONTINUOUS
10
253.9375
20
-24.0499999999999972
11
253.9375
21
-14.0499999999999989
0
LINE
8
BLACK
6
CONTINUOUS
10
254.9375
20
-13.0499999999999989
11
268.9375
21
-13.0499999999999989
0
LINE
8
BLACK
6
CONTINUOUS
10
268.9375
20
-25.0499999999999972
11
254.9375
21
-25.0499999999999972
0
LINE
8
BLACK
6
CONTINUOUS
10
269.9375
20
-14.0499999999999989
11
269.9375
21
-24.0499999999999972
0
ARC
8
BLACK
10
254.9374990000000025
20
-14.0499989999999997
40
0.9999990000004999
50
-270.00005730
51
-179.99994270
0
ARC
8
BLACK
10
254.9374990000000025
20
-24.0500009999999982
40
0.9999990000004999
50
-180.00005730
51
-89.99994270
0
ARC
8
BLACK
10
268.9375
20
-14.0499999999999989
40
1.
50
0.00000000
51
90.00000000
0
ARC
8
BLACK
10
268.9375
20
-24.0499999999999972
40
1.
50
-90.00000000
51
-0.00000000
0
LINE
8
BLACK
6
CONTINUOUS
10
215.8374999999999773
20
-43.1000000000000014
11
215.8374999999999773
21
-33.1000000000000014
0
LINE
8
BLACK
6
CONTINUOUS
10
216.8374999999999773
20
-32.1000000000000014
11
230.8374999999999773
21
-32.1000000000000014
0
LINE
8
BLACK
6
CONTINUOUS
10
230.8374999999999773
20
-44.1000000000000014
11
216.8374999999999773
21
-44.1000000000000014
0
LINE
8
BLACK
6
CONTINUOUS
10
231.8374999999999773
20
-33.1000000000000014
11
231.8374999999999773
21
-43.1000000000000014
0
ARC
8
BLACK
10
216.8374999999999773
20
-33.1000000000000014
40
1.
50
90.00000000
51
180.00000000
0
ARC
8
BLACK
10
216.8374999999999773
20
-43.1000000000000014
40
1.
50
-180.00000000
51
-90.00000000
0
ARC
8
BLACK
10
230.8375010000000032
20
-33.0999989999999968
40
0.9999990000004999
50
-0.00005730
51
90.00005730
0
ARC
8
BLACK
10
230.8375010000000032
20
-43.1000009999999989
40
0.9999990000004999
50
-90.00005730
51
0.00005730
0
LINE
8
BLACK
6
CONTINUOUS
10
177.7374999999999829
20
-43.1000000000000014
11
177.7374999999999829
21
-33.1000000000000014
0
LINE
8
BLACK
6
CONTINUOUS
10
178.7374999999999829
20
-32.1000000000000014
11
192.7374999999999829
21
-32.1000000000000014
0
LINE
8
BLACK
6
CONTINUOUS
10
192.7374999999999829
20
-44.1000000000000014
11
178.7374999999999829
21
-44.1000000000000014
0
LINE
8
BLACK
6
CONTINUOUS
10
193.7374999999999829
20
-33.1000000000000014
11
193.7374999999999829
21
-43.1000000000000014
0
ARC
8
BLACK
10
178.7374999999999829
20
-33.1000000000000014
40
1.
50
90.00000000
51
180.00000000
0
ARC
8
BLACK
10
178.7374999999999829
20
-43.1000000000000014
40
1.
50
-180.00000000
51
-90.00000000
0
ARC
8
BLACK
10
192.7375009999999804
20
-33.0999989999999968
40
0.9999990000004999
50
-0.00005730
51
90.00005730
0
ARC
8
BLACK
10
192.7375009999999804
20
-43.1000009999999989
40
0.9999990000004999
50
-90.00005730
51
0.00005730
0
LINE
8
BLACK
6
CONTINUOUS
10
20.5749999999999993
20
-24.0499999999999972
11
20.5749999999999993
21
-14.0499999999999989
0
LINE
8
BLACK
6
CONTINUOUS
10
21.5749999999999993
20
-13.0499999999999989
11
35.5749999999999957
21
-13.0499999999999989
0
LINE
8
BLACK
6
CONTINUOUS
10
35.5749999999999957
20
-25.0499999999999972
11
21.5749999999999993
21
-25.0499999999999972
0
LINE
8
BLACK
6
CONTINUOUS
10
36.5749999999999957
20
-14.0499999999999989
11
36.5749999999999957
21
-24.0499999999999972
0
ARC
8
BLACK
10
21.5749989999999983
20
-14.0499989999999997
40
0.9999990000004999
50
-270.00005730
51
-179.99994270
0
ARC
8
BLACK
10
21.5749989999999983
20
-24.0500009999999982
40
0.9999990000004999
50
-180.00005730
51
-89.99994270
0
ARC
8
BLACK
10
35.5749999999999957
20
-14.0499999999999989
40
1.
50
0.00000000
51
90.00000000
0
ARC
8
BLACK
10
35.5749999999999957
20
-24.0499999999999972
40
1.
50
-90.00000000
51
-0.00000000
0
LINE
8
BLACK
6
CONTINUOUS
10
-3.2374999999999998
20
-24.0499999999999972
11
-3.2374999999999998
21
-14.0499999999999989
0
LINE
8
BLACK
6
CONTINUOUS
10
-2.2374999999999998
20
-13.0499999999999989
11
11.7624999999999993
21
-13.0499999999999989
0
LINE
8
BLACK
6
CONTINUOUS
10
11.7624999999999993
20
-25.0499999999999972
11
-2.2374999999999998
21
-25.0499999999999972
0
LINE
8
BLACK
6
CONTINUOUS
10
12.7624999999999993
20
-14.0499999999999989
11
12.7624999999999993
21
-24.0499999999999972
0
ARC
8
BLACK
10
-2.237501
20
-14.0499989999999997
40
0.9999990000004999
50
-270.00005730
51
-179.99994270
0
ARC
8
BLACK
10
-2.237501
20
-24.0500009999999982
40
0.9999990000004999
50
-180.00005730
51
-89.99994270
0
ARC
8
BLACK
10
11.7624999999999993
20
-14.0499999999999989
40
1.
50
0.00000000
51
90.00000000
0
ARC
8
BLACK
10
11.7624999999999993
20
-24.0499999999999972
40
1.
50
-90.00000000
51
-0.00000000
0
LINE
8
BLACK
6
CONTINUOUS
10
39.625
20
-24.0499999999999972
11
39.625
21
-14.0499999999999989
0
LINE
8
BLACK
6
CONTINUOUS
10
40.625
20
-13.0499999999999989
11
54.625
21
-13.0499999999999989
0
LINE
8
BLACK
6
CONTINUOUS
10
54.625
20
-25.0499999999999972
11
40.625
21
-25.0499999999999972
0
LINE
8
BLACK
6
CONTINUOUS
10
55.625
20
-14.0499999999999989
11
55.625
21
-24.0499999999999972
0
ARC
8
BLACK
10
40.6249989999999954
20
-14.0499989999999997
40
0.9999990000004999
50
-270.00005730
51
-179.99994270
0
ARC
8
BLACK
10
40.6249989999999954
20
-24.0500009999999982
40
0.9999990000004999
50
-180.00005730
51
-89.99994270
0
ARC
8
BLACK
10
54.625
20
-14.0499999999999989
40
1.
50
0.00000000
51
90.00000000
0
ARC
8
BLACK
10
54.625
20
-24.0499999999999972
40
1.
50
-90.00000000
51
-0.00000000
0
LINE
8
BLACK
6
CONTINUOUS
10
184.8812499999999943
20
-81.2000000000000028
11
184.8812499999999943
21
-71.2000000000000028
0
LINE
8
BLACK
6
CONTINUOUS
10
185.8812499999999943
20
-70.2000000000000028
11
199.8812499999999943
21
-70.2000000000000028
0
LINE
8
BLACK
6
CONTINUOUS
10
199.8812499999999943
20
-82.2000000000000028
11
185.8812499999999943
21
-82.2000000000000028
0
LINE
8
BLACK
6
CONTINUOUS
10
200.8812499999999943
20
-71.2000000000000028
11
200.8812499999999943
21
-81.2000000000000028
0
ARC
8
BLACK
10
185.8812489999999968
20
-71.1999989999999912
40
0.9999990000004999
50
-270.00005730
51
-179.99994270
0
ARC
8
BLACK
10
185.8812489999999968
20
-81.2000010000000003
40
0.9999990000004999
50
-180.00005730
51
-89.99994270
0
ARC
8
BLACK
10
199.8812499999999943
20
-71.2000000000000028
40
1.
50
0.00000000
51
90.00000000
0
ARC
8
BLACK
10
199.8812499999999943
20
-81.2000000000000028
40
1.
50
-90.00000000
51
-0.00000000
0
LINE
8
BLACK
6
CONTINUOUS
10
130.1124999999999829
20
-62.1499999999999986
11
130.1124999999999829
21
-52.1499999999999986
0
LINE
8
BLACK
6
CONTINUOUS
10
131.1124999999999829
20
-51.1499999999999986
11
145.1124999999999829
21
-51.1499999999999986
0
LINE
8
BLACK
6
CONTINUOUS
10
145.1124999999999829
20
-63.1499999999999986
11
131.1124999999999829
21
-63.1499999999999986
0
LINE
8
BLACK
6
CONTINUOUS
10
146.1124999999999829
20
-52.1499999999999986
11
146.1124999999999829
21
-62.1499999999999986
0
ARC
8
BLACK
10
131.1124999999999829
20
-52.1499999999999986
40
1.
50
90.00000000
51
180.00000000
0
ARC
8
BLACK
10
131.1124999999999829
20
-62.1499999999999986
40
1.
50
-180.00000000
51
-90.00000000
0
ARC
8
BLACK
10
145.1125009999999804
20
-52.1499990000000011
40
0.9999990000004999
50
-0.00005730
51
90.00005730
0
ARC
8
BLACK
10
145.1125009999999804
20
-62.1500009999999961
40
0.9999990000004999
50
-90.00005730
51
0.00005730
0
LINE
8
BLACK
6
CONTINUOUS
10
30.0999999999999979
20
-5.
11
30.0999999999999979
21
5.
0
LINE
8
BLACK
6
CONTINUOUS
10
31.0999999999999979
20
6.
11
45.1000000000000014
21
6.
0
LINE
8
BLACK
6
CONTINUOUS
10
45.1000000000000014
20
-6.
11
31.0999999999999979
21
-6.
0
LINE
8
BLACK
6
CONTINUOUS
10
46.1000000000000014
20
5.
11
46.1000000000000014
21
-5.
0
ARC
8
BLACK
10
31.0999999999999979
20
5.
40
1.
50
90.00000000
51
180.00000000
0
ARC
8
BLACK
10
31.0999999999999979
20
-5.
40
1.
50
-180.00000000
51
-90.00000000
0
ARC
8
BLACK
10
45.1000009999999989
20
5.0000010000000001
40
0.9999990000004999
50
-0.00005730
51
90.00005730
0
ARC
8
BLACK
10
45.1000009999999989
20
-5.0000010000000001
40
0.9999990000004999
50
-90.00005730
51
0.00005730
0
LINE
8
BLACK
6
CONTINUOUS
10
11.0499999999999989
20
-5.
11
11.0499999999999989
21
5.
0
LINE
8
BLACK
6
CONTINUOUS
10
12.0499999999999989
20
6.
11
26.0499999999999972
21
6.
0
LINE
8
BLACK
6
CONTINUOUS
10
26.0499999999999972
20
-6.
11
12.0499999999999989
21
-6.
0
LINE
8
BLACK
6
CONTINUOUS
10
27.0499999999999972
20
5.
11
27.0499999999999972
21
-5.
0
ARC
8
BLACK
10
12.0499999999999989
20
5.
40
1.
50
90.00000000
51
180.00000000
0
ARC
8
BLACK
10
12.0499999999999989
20
-5.
40
1.
50
-180.00000000
51
-90.00000000
0
ARC
8
BLACK
10
26.0500009999999982
20
5.0000010000000001
40
0.9999990000004999
50
-0.00005730
51
90.00005730
0
ARC
8
BLACK
10
26.0500009999999982
20
-5.0000010000000001
40
0.9999990000004999
50
-90.00005730
51
0.00005730
0
LINE
8
BLACK
6
CONTINUOUS
10
68.2000000000000028
20
-81.2000000000000028
11
68.2000000000000028
21
-71.2000000000000028
0
LINE
8
BLACK
6
CONTINUOUS
10
69.2000000000000028
20
-70.2000000000000028
11
83.2000000000000028
21
-70.2000000000000028
0
LINE
8
BLACK
6
CONTINUOUS
10
83.2000000000000028
20
-82.2000000000000028
11
69.2000000000000028
21
-82.2000000000000028
0
LINE
8
BLACK
6
CONTINUOUS
10
84.2000000000000028
20
-71.2000000000000028
11
84.2000000000000028
21
-81.2000000000000028
0
ARC
8
BLACK
10
69.1999989999999912
20
-71.1999989999999912
40
0.9999990000004999
50
-270.00005730
51
-179.99994270
0
ARC
8
BLACK
10
69.1999989999999912
20
-81.2000010000000003
40
0.9999990000004999
50
-180.00005730
51
-89.99994270
0
ARC
8
BLACK
10
83.2000000000000028
20
-71.2000000000000028
40
1.
50
0.00000000
51
90.00000000
0
ARC
8
BLACK
10
83.2000000000000028
20
-81.2000000000000028
40
1.
50
-90.00000000
51
-0.00000000
0
LINE
8
BLACK
6
CONTINUOUS
10
49.1499999999999986
20
-5.
11
49.1499999999999986
21
5.
0
LINE
8
BLACK
6
CONTINUOUS
10
50.1499999999999986
20
6.
11
64.1499999999999915
21
6.
0
LINE
8
BLACK
6
CONTINUOUS
10
64.1499999999999915
20
-6.
11
50.1499999999999986
21
-6.
0
LINE
8
BLACK
6
CONTINUOUS
10
65.1499999999999915
20
5.
11
65.1499999999999915
21
-5.
0
ARC
8
BLACK
10
50.1499999999999986
20
5.
40
1.
50
90.00000000
51
180.00000000
0
ARC
8
BLACK
10
50.1499999999999986
20
-5.
40
1.
50
-180.00000000
51
-90.00000000
0
ARC
8
BLACK
10
64.1500010000000032
20
5.0000010000000001
40
0.9999990000004999
50
-0.00005730
51
90.00005730
0
ARC
8
BLACK
10
64.1500010000000032
20
-5.0000010000000001
40
0.9999990000004999
50
-90.00005730
51
0.00005730
0
LINE
8
BLACK
6
CONTINUOUS
10
153.9249999999999829
20
-24.0499999999999972
11
153.9249999999999829
21
-14.0499999999999989
0
LINE
8
BLACK
6
CONTINUOUS
10
154.9249999999999829
20
-13.0499999999999989
11
168.9249999999999829
21
-13.0499999999999989
0
LINE
8
BLACK
6
CONTINUOUS
10
168.9249999999999829
20
-25.0499999999999972
11
154.9249999999999829
21
-25.0499999999999972
0
LINE
8
BLACK
6
CONTINUOUS
10
169.9249999999999829
20
-14.0499999999999989
11
169.9249999999999829
21
-24.0499999999999972
0
ARC
8
BLACK
10
154.9249989999999855
20
-14.0499989999999997
40
0.9999990000004999
50
-270.00005730
51
-179.99994270
0
ARC
8
BLACK
10
154.9249989999999855
20
-24.0500009999999982
40
0.9999990000004999
50
-180.00005730
51
-89.99994270
0
ARC
8
BLACK
10
168.9249999999999829
20
-14.0499999999999989
40
1.
50
0.00000000
51
90.00000000
0
ARC
8
BLACK
10
168.9249999999999829
20
-24.0499999999999972
40
1.
50
-90.00000000
51
-0.00000000
0
LINE
8
BLACK
6
CONTINUOUS
10
-0.85625
20
-43.1000319999999988
11
-0.85625
21
-33.1000319999999988
0
LINE
8
BLACK
6
CONTINUOUS
10
0.14375
20
-32.1000319999999988
11
14.1437499999999989
21
-32.1000319999999988
0
LINE
8
BLACK
6
CONTINUOUS
10
14.1437499999999989
20
-44.1000319999999988
11
0.14375
21
-44.1000319999999988
0
LINE
8
BLACK
6
CONTINUOUS
10
15.1437499999999989
20
-33.1000319999999988
11
15.1437499999999989
21
-43.1000319999999988
0
ARC
8
BLACK
10
0.14375
20
-33.1000319999999988
40
1.
50
90.00000000
51
180.00000000
0
ARC
8
BLACK
10
0.14375
20
-43.1000319999999988
40
1.
50
-180.00000000
51
-90.00000000
0
ARC
8
BLACK
10
14.143751
20
-33.1000310000000013
40
0.9999990000004999
50
-0.00005730
51
90.00005730
0
ARC
8
BLACK
10
14.143751
20
-43.1000329999999963
40
0.9999990000004999
50
-90.00005730
51
0.00005730
0
LINE
8
BLACK
6
CONTINUOUS
10
46.7687499999999972
20
-81.2000000000000028
11
46.7687499999999972
21
-71.2000000000000028
0
LINE
8
BLACK
6
CONTINUOUS
10
47.7687499999999972
20
-70.2000000000000028
11
61.7687499999999972
21
-70.2000000000000028
0
LINE
8
BLACK
6
CONTINUOUS
10
61.7687499999999972
20
-82.2000000000000028
11
47.7687499999999972
21
-82.2000000000000028
0
LINE
8
BLACK
6
CONTINUOUS
10
62.7687499999999972
20
-71.2000000000000028
11
62.7687499999999972
21
-81.2000000000000028
0
ARC
8
BLACK
10
47.7687489999999997
20
-71.1999989999999912
40
0.9999990000004999
50
-270.00005730
51
-179.99994270
0
ARC
8
BLACK
10
47.7687489999999997
20
-81.2000010000000003
40
0.9999990000004999
50
-180.00005730
51
-89.99994270
0
ARC
8
BLACK
10
61.7687499999999972
20
-71.2000000000000028
40
1.
50
0.00000000
51
90.00000000
0
ARC
8
BLACK
10
61.7687499999999972
20
-81.2000000000000028
40
1.
50
-90.00000000
51
-0.00000000
0
CIRCLE
8
BLACK
10
16.0518000000000001
20
-18.7020499999999998
40
2.1999999999999997
0
CIRCLE
8
BLACK
10
16.0518000000000001
20
-18.7020499999999998
40
3.1999999999999997
0
LINE
8
BLACK
6
CONTINUOUS
10
92.7749999999999915
20
-81.7000000000000028
11
92.7749999999999915
21
-69.2000000000000028
0
LINE
8
BLACK
6
CONTINUOUS
10
112.7749999999999915
20
-68.2000000000000028
11
96.7749999999999915
21
-68.2000000000000028
0
LINE
8
BLACK
6
CONTINUOUS
10
116.7749999999999915
20
-81.6999989999999912
11
116.7749999999999915
21
-69.1999989999999912
0
LINE
8
BLACK
6
CONTINUOUS
10
120.2749999999999915
20
-82.2000000000000028
11
89.2749999999999915
21
-82.2000000000000028
0
LINE
8
BLACK
6
CONTINUOUS
10
89.2749999999999915
20
-82.2000000000000028
11
89.2749999999999915
21
-66.2000000000000028
0
LINE
8
BLACK
6
CONTINUOUS
10
89.2749999999999915
20
-66.2000000000000028
11
120.2749999999999915
21
-66.2000000000000028
0
LINE
8
BLACK
6
CONTINUOUS
10
120.2749999999999915
20
-66.2000000000000028
11
120.2749999999999915
21
-82.2000000000000028
0
CIRCLE
8
BLACK
10
90.2749999999999915
20
-67.2000000000000028
40
1.
0
CIRCLE
8
BLACK
10
90.2749999999999915
20
-81.2000000000000028
40
1.
0
CIRCLE
8
BLACK
10
119.2749999999999915
20
-67.2000000000000028
40
1.
0
CIRCLE
8
BLACK
10
119.2749999999999915
20
-81.2000000000000028
40
1.
0
LINE
8
BLACK
6
CONTINUOUS
10
63.4375
20
-43.1000000000000014
11
63.4375
21
-33.1000000000000014
0
LINE
8
BLACK
6
CONTINUOUS
10
64.4375
20
-32.1000000000000014
11
78.4375
21
-32.1000000000000014
0
LINE
8
BLACK
6
CONTINUOUS
10
78.4375
20
-44.1000000000000014
11
64.4375
21
-44.1000000000000014
0
LINE
8
BLACK
6
CONTINUOUS
10
79.4375
20
-33.1000000000000014
11
79.4375
21
-43.1000000000000014
0
ARC
8
BLACK
10
64.4375
20
-33.1000000000000014
40
1.
50
90.00000000
51
180.00000000
0
ARC
8
BLACK
10
64.4375
20
-43.1000000000000014
40
1.
50
-180.00000000
51
-90.00000000
0
ARC
8
BLACK
10
78.4375009999999975
20
-33.0999989999999968
40
0.9999990000004999
50
-0.00005730
51
90.00005730
0
ARC
8
BLACK
10
78.4375009999999975
20
-43.1000009999999989
40
0.9999990000004999
50
-90.00005730
51
0.00005730
0
LINE
8
BLACK
6
CONTINUOUS
10
34.8624999999999972
20
-62.1500479999999982
11
34.8624999999999972
21
-52.1500479999999982
0
LINE
8
BLACK
6
CONTINUOUS
10
35.8624999999999972
20
-51.1500479999999982
11
49.8624999999999972
21
-51.1500479999999982
0
LINE
8
BLACK
6
CONTINUOUS
10
49.8624999999999972
20
-63.1500479999999982
11
35.8624999999999972
21
-63.1500479999999982
0
LINE
8
BLACK
6
CONTINUOUS
10
50.8624999999999972
20
-52.1500479999999982
11
50.8624999999999972
21
-62.1500479999999982
0
ARC
8
BLACK
10
35.8624999999999972
20
-52.1500479999999982
40
1.
50
90.00000000
51
180.00000000
0
ARC
8
BLACK
10
35.8624999999999972
20
-62.1500479999999982
40
1.
50
-180.00000000
51
-90.00000000
0
ARC
8
BLACK
10
49.8625009999999946
20
-52.1500470000000007
40
0.9999990000004999
50
-0.00005730
51
90.00005730
0
ARC
8
BLACK
10
49.8625009999999946
20
-62.1500489999999957
40
0.9999990000004999
50
-90.00005730
51
0.00005730
0
LINE
8
BLACK
6
CONTINUOUS
10
163.4499999999999886
20
-5.
11
163.4499999999999886
21
5.
0
LINE
8
BLACK
6
CONTINUOUS
10
164.4499999999999886
20
6.
11
178.4499999999999886
21
6.
0
LINE
8
BLACK
6
CONTINUOUS
10
178.4499999999999886
20
-6.
11
164.4499999999999886
21
-6.
0
LINE
8
BLACK
6
CONTINUOUS
10
179.4499999999999886
20
5.
11
179.4499999999999886
21
-5.
0
ARC
8
BLACK
10
164.4499999999999886
20
5.
40
1.
50
90.00000000
51
180.00000000
0
ARC
8
BLACK
10
164.4499999999999886
20
-5.
40
1.
50
-180.00000000
51
-90.00000000
0
ARC
8
BLACK
10
178.4500009999999861
20
5.0000010000000001
40
0.9999990000004999
50
-0.00005730
51
90.00005730
0
ARC
8
BLACK
10
178.4500009999999861
20
-5.0000010000000001
40
0.9999990000004999
50
-90.00005730
51
0.00005730
0
LINE
8
BLACK
6
CONTINUOUS
10
220.5999999999999943
20
-5.
11
220.5999999999999943
21
5.
0
LINE
8
BLACK
6
CONTINUOUS
10
221.5999999999999943
20
6.
11
235.5999999999999943
21
6.
0
LINE
8
BLACK
6
CONTINUOUS
10
235.5999999999999943
20
-6.
11
221.5999999999999943
21
-6.
0
LINE
8
BLACK
6
CONTINUOUS
10
236.5999999999999943
20
5.
11
236.5999999999999943
21
-5.
0
ARC
8
BLACK
10
221.5999999999999943
20
5.
40
1.
50
90.00000000
51
180.00000000
0
ARC
8
BLACK
10
221.5999999999999943
20
-5.
40
1.
50
-180.00000000
51
-90.00000000
0
ARC
8
BLACK
10
235.6000009999999918
20
5.0000010000000001
40
0.9999990000004999
50
-0.00005730
51
90.00005730
0
ARC
8
BLACK
10
235.6000009999999918
20
-5.0000010000000001
40
0.9999990000004999
50
-90.00005730
51
0.00005730
0
LINE
8
BLACK
6
CONTINUOUS
10
230.1251999999999782
20
-81.2000639999999976
11
230.1251999999999782
21
-71.2000639999999976
0
LINE
8
BLACK
6
CONTINUOUS
10
231.1251999999999782
20
-70.2000639999999976
11
245.1251999999999782
21
-70.2000639999999976
0
LINE
8
BLACK
6
CONTINUOUS
10
245.1251999999999782
20
-82.2000639999999976
11
231.1251999999999782
21
-82.2000639999999976
0
LINE
8
BLACK
6
CONTINUOUS
10
246.1251999999999782
20
-71.2000639999999976
11
246.1251999999999782
21
-81.2000639999999976
0
ARC
8
BLACK
10
231.1251989999999807
20
-71.2000630000000001
40
0.9999990000004999
50
-270.00005730
51
-179.99994270
0
ARC
8
BLACK
10
231.1251989999999807
20
-81.2000649999999951
40
0.9999990000004999
50
-180.00005730
51
-89.99994270
0
ARC
8
BLACK
10
245.1251999999999782
20
-71.2000639999999976
40
1.
50
0.00000000
51
90.00000000
0
ARC
8
BLACK
10
245.1251999999999782
20
-81.2000639999999976
40
1.
50
-90.00000000
51
-0.00000000
0
LINE
8
BLACK
6
CONTINUOUS
10
196.7874999999999943
20
-43.1000000000000014
11
196.7874999999999943
21
-33.1000000000000014
0
LINE
8
BLACK
6
CONTINUOUS
10
197.7874999999999943
20
-32.1000000000000014
11
211.7874999999999943
21
-32.1000000000000014
0
LINE
8
BLACK
6
CONTINUOUS
10
211.7874999999999943
20
-44.1000000000000014
11
197.7874999999999943
21
-44.1000000000000014
0
LINE
8
BLACK
6
CONTINUOUS
10
212.7874999999999943
20
-33.1000000000000014
11
212.7874999999999943
21
-43.1000000000000014
0
ARC
8
BLACK
10
197.7874999999999943
20
-33.1000000000000014
40
1.
50
90.00000000
51
180.00000000
0
ARC
8
BLACK
10
197.7874999999999943
20
-43.1000000000000014
40
1.
50
-180.00000000
51
-90.00000000
0
ARC
8
BLACK
10
211.7875009999999918
20
-33.0999989999999968
40
0.9999990000004999
50
-0.00005730
51
90.00005730
0
ARC
8
BLACK
10
211.7875009999999918
20
-43.1000009999999989
40
0.9999990000004999
50
-90.00005730
51
0.00005730
0
CIRCLE
8
BLACK
10
119.0524999999999949
20
-37.801249999999996
40
2.1999999999999997
0
CIRCLE
8
BLACK
10
119.0524999999999949
20
-37.801249999999996
40
3.1999999999999997
0
CIRCLE
8
BLACK
10
181.3519000000000005
20
-76.0019499999999937
40
2.1999999999999997
0
CIRCLE
8
BLACK
10
181.3519000000000005
20
-76.0019499999999937
40
3.1999999999999997
0
LINE
8
BLACK
6
CONTINUOUS
10
182.5
20
-5.
11
182.5
21
5.
0
LINE
8
BLACK
6
CONTINUOUS
10
183.5
20
6.
11
197.5
21
6.
0
LINE
8
BLACK
6
CONTINUOUS
10
197.5
20
-6.
11
183.5
21
-6.
0
LINE
8
BLACK
6
CONTINUOUS
10
198.5
20
5.
11
198.5
21
-5.
0
ARC
8
BLACK
10
183.5
20
5.
40
1.
50
90.00000000
51
180.00000000
0
ARC
8
BLACK
10
183.5
20
-5.
40
1.
50
-180.00000000
51
-90.00000000
0
ARC
8
BLACK
10
197.5000009999999975
20
5.0000010000000001
40
0.9999990000004999
50
-0.00005730
51
90.00005730
0
ARC
8
BLACK
10
197.5000009999999975
20
-5.0000010000000001
40
0.9999990000004999
50
-90.00005730
51
0.00005730
0
LINE
8
BLACK
6
CONTINUOUS
10
77.7249999999999943
20
-24.0499999999999972
11
77.7249999999999943
21
-14.0499999999999989
0
LINE
8
BLACK
6
CONTINUOUS
10
78.7249999999999943
20
-13.0499999999999989
11
92.7249999999999943
21
-13.0499999999999989
0
LINE
8
BLACK
6
CONTINUOUS
10
92.7249999999999943
20
-25.0499999999999972
11
78.7249999999999943
21
-25.0499999999999972
0
LINE
8
BLACK
6
CONTINUOUS
10
93.7249999999999943
20
-14.0499999999999989
11
93.7249999999999943
21
-24.0499999999999972
0
ARC
8
BLACK
10
78.7249989999999968
20
-14.0499989999999997
40
0.9999990000004999
50
-270.00005730
51
-179.99994270
0
ARC
8
BLACK
10
78.7249989999999968
20
-24.0500009999999982
40
0.9999990000004999
50
-180.00005730
51
-89.99994270
0
ARC
8
BLACK
10
92.7249999999999943
20
-14.0499999999999989
40
1.
50
0.00000000
51
90.00000000
0
ARC
8
BLACK
10
92.7249999999999943
20
-24.0499999999999972
40
1.
50
-90.00000000
51
-0.00000000
0
LINE
8
BLACK
6
CONTINUOUS
10
211.0749999999999886
20
-24.0499999999999972
11
211.0749999999999886
21
-14.0499999999999989
0
LINE
8
BLACK
6
CONTINUOUS
10
212.0749999999999886
20
-13.0499999999999989
11
226.0749999999999886
21
-13.0499999999999989
0
LINE
8
BLACK
6
CONTINUOUS
10
226.0749999999999886
20
-25.0499999999999972
11
212.0749999999999886
21
-25.0499999999999972
0
LINE
8
BLACK
6
CONTINUOUS
10
227.0749999999999886
20
-14.0499999999999989
11
227.0749999999999886
21
-24.0499999999999972
0
ARC
8
BLACK
10
212.0749989999999912
20
-14.0499989999999997
40
0.9999990000004999
50
-270.00005730
51
-179.99994270
0
ARC
8
BLACK
10
212.0749989999999912
20
-24.0500009999999982
40
0.9999990000004999
50
-180.00005730
51
-89.99994270
0
ARC
8
BLACK
10
226.0749999999999886
20
-14.0499999999999989
40
1.
50
0.00000000
51
90.00000000
0
ARC
8
BLACK
10
226.0749999999999886
20
-24.0499999999999972
40
1.
50
-90.00000000
51
-0.00000000
0
LINE
8
BLACK
6
CONTINUOUS
10
115.8249999999999886
20
-24.0499999999999972
11
115.8249999999999886
21
-14.0499999999999989
0
LINE
8
BLACK
6
CONTINUOUS
10
116.8249999999999886
20
-13.0499999999999989
11
130.8249999999999886
21
-13.0499999999999989
0
LINE
8
BLACK
6
CONTINUOUS
10
130.8249999999999886
20
-25.0499999999999972
11
116.8249999999999886
21
-25.0499999999999972
0
LINE
8
BLACK
6
CONTINUOUS
10
131.8249999999999886
20
-14.0499999999999989
11
131.8249999999999886
21
-24.0499999999999972
0
ARC
8
BLACK
10
116.8249989999999912
20
-14.0499989999999997
40
0.9999990000004999
50
-270.00005730
51
-179.99994270
0
ARC
8
BLACK
10
116.8249989999999912
20
-24.0500009999999982
40
0.9999990000004999
50
-180.00005730
51
-89.99994270
0
ARC
8
BLACK
10
130.8249999999999886
20
-14.0499999999999989
40
1.
50
0.00000000
51
90.00000000
0
ARC
8
BLACK
10
130.8249999999999886
20
-24.0499999999999972
40
1.
50
-90.00000000
51
-0.00000000
0
LINE
8
BLACK
6
CONTINUOUS
10
242.7937499999999886
20
-43.6000000000000014
11
242.7937499999999886
21
-31.0999999999999979
0
LINE
8
BLACK
6
CONTINUOUS
10
262.7937499999999886
20
-30.0999999999999979
11
246.7937499999999886
21
-30.0999999999999979
0
LINE
8
BLACK
6
CONTINUOUS
10
266.7937499999999886
20
-43.5999989999999968
11
266.7937499999999886
21
-31.0999989999999968
0
LINE
8
BLACK
6
CONTINUOUS
10
270.2937499999999886
20
-44.1000000000000014
11
239.2937499999999886
21
-44.1000000000000014
0
LINE
8
BLACK
6
CONTINUOUS
10
239.2937499999999886
20
-44.1000000000000014
11
239.2937499999999886
21
-28.0999999999999979
0
LINE
8
BLACK
6
CONTINUOUS
10
239.2937499999999886
20
-28.0999999999999979
11
270.2937499999999886
21
-28.0999999999999979
0
LINE
8
BLACK
6
CONTINUOUS
10
270.2937499999999886
20
-28.0999999999999979
11
270.2937499999999886
21
-44.1000000000000014
0
CIRCLE
8
BLACK
10
240.2937499999999886
20
-29.0999999999999979
40
1.
0
CIRCLE
8
BLACK
10
240.2937499999999886
20
-43.1000000000000014
40
1.
0
CIRCLE
8
BLACK
10
269.2937499999999886
20
-29.0999999999999979
40
1.
0
CIRCLE
8
BLACK
10
269.2937499999999886
20
-43.1000000000000014
40
1.
0
LINE
8
BLACK
6
CONTINUOUS
10
172.9749999999999943
20
-24.0499999999999972
11
172.9749999999999943
21
-14.0499999999999989
0
LINE
8
BLACK
6
CONTINUOUS
10
173.9749999999999943
20
-13.0499999999999989
11
187.9749999999999943
21
-13.0499999999999989
0
LINE
8
BLACK
6
CONTINUOUS
10
187.9749999999999943
20
-25.0499999999999972
11
173.9749999999999943
21
-25.0499999999999972
0
LINE
8
BLACK
6
CONTINUOUS
10
188.9749999999999943
20
-14.0499999999999989
11
188.9749999999999943
21
-24.0499999999999972
0
ARC
8
BLACK
10
173.9749989999999968
20
-14.0499989999999997
40
0.9999990000004999
50
-270.00005730
51
-179.99994270
0
ARC
8
BLACK
10
173.9749989999999968
20
-24.0500009999999982
40
0.9999990000004999
50
-180.00005730
51
-89.99994270
0
ARC
8
BLACK
10
187.9749999999999943
20
-14.0499999999999989
40
1.
50
0.00000000
51
90.00000000
0
ARC
8
BLACK
10
187.9749999999999943
20
-24.0499999999999972
40
1.
50
-90.00000000
51
-0.00000000
0
LINE
8
BLACK
6
CONTINUOUS
10
25.3374999999999986
20
-43.1000319999999988
11
25.3374999999999986
21
-33.1000319999999988
0
LINE
8
BLACK
6
CONTINUOUS
10
26.3374999999999986
20
-32.1000319999999988
11
40.3374999999999986
21
-32.1000319999999988
0
LINE
8
BLACK
6
CONTINUOUS
10
40.3374999999999986
20
-44.1000319999999988
11
26.3374999999999986
21
-44.1000319999999988
0
LINE
8
BLACK
6
CONTINUOUS
10
41.3374999999999986
20
-33.1000319999999988
11
41.3374999999999986
21
-43.1000319999999988
0
ARC
8
BLACK
10
26.3374999999999986
20
-33.1000319999999988
40
1.
50
90.00000000
51
180.00000000
0
ARC
8
BLACK
10
26.3374999999999986
20
-43.1000319999999988
40
1.
50
-180.00000000
51
-90.00000000
0
ARC
8
BLACK
10
40.3375009999999961
20
-33.1000310000000013
40
0.9999990000004999
50
-0.00005730
51
90.00005730
0
ARC
8
BLACK
10
40.3375009999999961
20
-43.1000329999999963
40
0.9999990000004999
50
-90.00005730
51
0.00005730
0
LINE
8
BLACK
6
CONTINUOUS
10
251.5562499999999773
20
-62.1499999999999986
11
251.5562499999999773
21
-52.1499999999999986
0
LINE
8
BLACK
6
CONTINUOUS
10
252.5562499999999773
20
-51.1499999999999986
11
266.5562499999999773
21
-51.1499999999999986
0
LINE
8
BLACK
6
CONTINUOUS
10
266.5562499999999773
20
-63.1499999999999986
11
252.5562499999999773
21
-63.1499999999999986
0
LINE
8
BLACK
6
CONTINUOUS
10
267.5562499999999773
20
-52.1499999999999986
11
267.5562499999999773
21
-62.1499999999999986
0
ARC
8
BLACK
10
252.5562499999999773
20
-52.1499999999999986
40
1.
50
90.00000000
51
180.00000000
0
ARC
8
BLACK
10
252.5562499999999773
20
-62.1499999999999986
40
1.
50
-180.00000000
51
-90.00000000
0
ARC
8
BLACK
10
266.5562509999999747
20
-52.1499990000000011
40
0.9999990000004999
50
-0.00005730
51
90.00005730
0
ARC
8
BLACK
10
266.5562509999999747
20
-62.1500009999999961
40
0.9999990000004999
50
-90.00005730
51
0.00005730
0
LINE
8
BLACK
6
CONTINUOUS
10
72.9624999999999915
20
-62.1499999999999986
11
72.9624999999999915
21
-52.1499999999999986
0
LINE
8
BLACK
6
CONTINUOUS
10
73.9624999999999915
20
-51.1499999999999986
11
87.9624999999999915
21
-51.1499999999999986
0
LINE
8
BLACK
6
CONTINUOUS
10
87.9624999999999915
20
-63.1499999999999986
11
73.9624999999999915
21
-63.1499999999999986
0
LINE
8
BLACK
6
CONTINUOUS
10
88.9624999999999915
20
-52.1499999999999986
11
88.9624999999999915
21
-62.1499999999999986
0
ARC
8
BLACK
10
73.9624999999999915
20
-52.1499999999999986
40
1.
50
90.00000000
51
180.00000000
0
ARC
8
BLACK
10
73.9624999999999915
20
-62.1499999999999986
40
1.
50
-180.00000000
51
-90.00000000
0
ARC
8
BLACK
10
87.9625009999999889
20
-52.1499990000000011
40
0.9999990000004999
50
-0.00005730
51
90.00005730
0
ARC
8
BLACK
10
87.9625009999999889
20
-62.1500009999999961
40
0.9999990000004999
50
-90.00005730
51
0.00005730
0
LINE
8
BLACK
6
CONTINUOUS
10
225.3626959999999997
20
-62.1500479999999982
11
225.3626959999999997
21
-52.1500479999999982
0
LINE
8
BLACK
6
CONTINUOUS
10
226.3626959999999997
20
-51.1500479999999982
11
240.3626959999999997
21
-51.1500479999999982
0
LINE
8
BLACK
6
CONTINUOUS
10
240.3626959999999997
20
-63.1500479999999982
11
226.3626959999999997
21
-63.1500479999999982
0
LINE
8
BLACK
6
CONTINUOUS
10
241.3626959999999997
20
-52.1500479999999982
11
241.3626959999999997
21
-62.1500479999999982
0
ARC
8
BLACK
10
226.3626959999999997
20
-52.1500479999999982
40
1.
50
90.00000000
51
180.00000000
0
ARC
8
BLACK
10
226.3626959999999997
20
-62.1500479999999982
40
1.
50
-180.00000000
51
-90.00000000
0
ARC
8
BLACK
10
240.3626969999999972
20
-52.1500470000000007
40
0.9999990000004999
50
-0.00005730
51
90.00005730
0
ARC
8
BLACK
10
240.3626969999999972
20
-62.1500489999999957
40
0.9999990000004999
50
-90.00005730
51
0.00005730
0
LINE
8
BLACK
6
CONTINUOUS
10
-0.09375
20
-51.6500009999999961
11
-0.09375
21
-64.1500010000000032
0
LINE
8
BLACK
6
CONTINUOUS
10
3.90625
20
-65.1499999999999915
11
19.90625
21
-65.1499999999999915
0
LINE
8
BLACK
6
CONTINUOUS
10
23.90625
20
-51.6499999999999986
11
23.90625
21
-64.1499999999999915
0
LINE
8
BLACK
6
CONTINUOUS
10
-3.59375
20
-51.1499999999999986
11
27.40625
21
-51.1499999999999986
0
LINE
8
BLACK
6
CONTINUOUS
10
27.40625
20
-51.1499999999999986
11
27.40625
21
-67.1499999999999915
0
LINE
8
BLACK
6
CONTINUOUS
10
27.40625
20
-67.1499999999999915
11
-3.59375
21
-67.1499999999999915
0
LINE
8
BLACK
6
CONTINUOUS
10
-3.59375
20
-67.1499999999999915
11
-3.59375
21
-51.1499999999999986
0
CIRCLE
8
BLACK
10
-2.59375
20
-52.1499999999999986
40
1.
0
CIRCLE
8
BLACK
10
-2.59375
20
-66.1499999999999915
40
1.
0
CIRCLE
8
BLACK
10
26.40625
20
-52.1499999999999986
40
1.
0
CIRCLE
8
BLACK
10
26.40625
20
-66.1499999999999915
40
1.
0
LINE
8
BLACK
6
CONTINUOUS
10
206.3125
20
-62.1499999999999986
11
206.3125
21
-52.1499999999999986
0
LINE
8
BLACK
6
CONTINUOUS
10
207.3125
20
-51.1499999999999986
11
221.3125
21
-51.1499999999999986
0
LINE
8
BLACK
6
CONTINUOUS
10
221.3125
20
-63.1499999999999986
11
207.3125
21
-63.1499999999999986
0
LINE
8
BLACK
6
CONTINUOUS
10
222.3125
20
-52.1499999999999986
11
222.3125
21
-62.1499999999999986
0
ARC
8
BLACK
10
207.3125
20
-52.1499999999999986
40
1.
50
90.00000000
51
180.00000000
0
ARC
8
BLACK
10
207.3125
20
-62.1499999999999986
40
1.
50
-180.00000000
51
-90.00000000
0
ARC
8
BLACK
10
221.3125009999999975
20
-52.1499990000000011
40
0.9999990000004999
50
-0.00005730
51
90.00005730
0
ARC
8
BLACK
10
221.3125009999999975
20
-62.1500009999999961
40
0.9999990000004999
50
-90.00005730
51
0.00005730
0
LINE
8
BLACK
6
CONTINUOUS
10
144.4000000000000057
20
-5.
11
144.4000000000000057
21
5.
0
LINE
8
BLACK
6
CONTINUOUS
10
145.4000000000000057
20
6.
11
159.4000000000000057
21
6.
0
LINE
8
BLACK
6
CONTINUOUS
10
159.4000000000000057
20
-6.
11
145.4000000000000057
21
-6.
0
LINE
8
BLACK
6
CONTINUOUS
10
160.4000000000000057
20
5.
11
160.4000000000000057
21
-5.
0
ARC
8
BLACK
10
145.4000000000000057
20
5.
40
1.
50
90.00000000
51
180.00000000
0
ARC
8
BLACK
10
145.4000000000000057
20
-5.
40
1.
50
-180.00000000
51
-90.00000000
0
ARC
8
BLACK
10
159.4000010000000032
20
5.0000010000000001
40
0.9999990000004999
50
-0.00005730
51
90.00005730
0
ARC
8
BLACK
10
159.4000010000000032
20
-5.0000010000000001
40
0.9999990000004999
50
-90.00005730
51
0.00005730
0
LINE
8
BLACK
6
CONTINUOUS
10
134.875
20
-24.0499999999999972
11
134.875
21
-14.0499999999999989
0
LINE
8
BLACK
6
CONTINUOUS
10
135.875
20
-13.0499999999999989
11
149.875
21
-13.0499999999999989
0
LINE
8
BLACK
6
CONTINUOUS
10
149.875
20
-25.0499999999999972
11
135.875
21
-25.0499999999999972
0
LINE
8
BLACK
6
CONTINUOUS
10
150.875
20
-14.0499999999999989
11
150.875
21
-24.0499999999999972
0
ARC
8
BLACK
10
135.8749990000000025
20
-14.0499989999999997
40
0.9999990000004999
50
-270.00005730
51
-179.99994270
0
ARC
8
BLACK
10
135.8749990000000025
20
-24.0500009999999982
40
0.9999990000004999
50
-180.00005730
51
-89.99994270
0
ARC
8
BLACK
10
149.875
20
-14.0499999999999989
40
1.
50
0.00000000
51
90.00000000
0
ARC
8
BLACK
10
149.875
20
-24.0499999999999972
40
1.
50
-90.00000000
51
-0.00000000
0
LINE
8
BLACK
6
CONTINUOUS
10
130.875
20
-81.7000000000000028
11
130.875
21
-69.2000000000000028
0
LINE
8
BLACK
6
CONTINUOUS
10
150.875
20
-68.2000000000000028
11
134.875
21
-68.2000000000000028
0
LINE
8
BLACK
6
CONTINUOUS
10
154.875
20
-81.6999989999999912
11
154.875
21
-69.1999989999999912
0
LINE
8
BLACK
6
CONTINUOUS
10
158.375
20
-82.2000000000000028
11
127.375
21
-82.2000000000000028
0
LINE
8
BLACK
6
CONTINUOUS
10
127.375
20
-82.2000000000000028
11
127.375
21
-66.2000000000000028
0
LINE
8
BLACK
6
CONTINUOUS
10
127.375
20
-66.2000000000000028
11
158.375
21
-66.2000000000000028
0
LINE
8
BLACK
6
CONTINUOUS
10
158.375
20
-66.2000000000000028
11
158.375
21
-82.2000000000000028
0
CIRCLE
8
BLACK
10
128.375
20
-67.2000000000000028
40
1.
0
CIRCLE
8
BLACK
10
128.375
20
-81.2000000000000028
40
1.
0
CIRCLE
8
BLACK
10
157.375
20
-67.2000000000000028
40
1.
0
CIRCLE
8
BLACK
10
157.375
20
-81.2000000000000028
40
1.
0
LINE
8
BLACK
6
CONTINUOUS
10
201.5499999999999829
20
-5.
11
201.5499999999999829
21
5.
0
LINE
8
BLACK
6
CONTINUOUS
10
202.5499999999999829
20
6.
11
216.5499999999999829
21
6.
0
LINE
8
BLACK
6
CONTINUOUS
10
216.5499999999999829
20
-6.
11
202.5499999999999829
21
-6.
0
LINE
8
BLACK
6
CONTINUOUS
10
217.5499999999999829
20
5.
11
217.5499999999999829
21
-5.
0
ARC
8
BLACK
10
202.5499999999999829
20
5.
40
1.
50
90.00000000
51
180.00000000
0
ARC
8
BLACK
10
202.5499999999999829
20
-5.
40
1.
50
-180.00000000
51
-90.00000000
0
ARC
8
BLACK
10
216.5500009999999804
20
5.0000010000000001
40
0.9999990000004999
50
-0.00005730
51
90.00005730
0
ARC
8
BLACK
10
216.5500009999999804
20
-5.0000010000000001
40
0.9999990000004999
50
-90.00005730
51
0.00005730
0
LINE
8
BLACK
6
CONTINUOUS
10
245.1749999999999829
20
5.4999989999999999
11
245.1749999999999829
21
-7.0000009999999993
0
LINE
8
BLACK
6
CONTINUOUS
10
249.1749999999999829
20
-8.
11
265.1750000000000114
21
-8.
0
LINE
8
BLACK
6
CONTINUOUS
10
269.1750000000000114
20
5.5
11
269.1750000000000114
21
-7.
0
LINE
8
BLACK
6
CONTINUOUS
10
241.6749999999999829
20
6.
11
272.6750000000000114
21
6.
0
LINE
8
BLACK
6
CONTINUOUS
10
272.6750000000000114
20
6.
11
272.6750000000000114
21
-10.
0
LINE
8
BLACK
6
CONTINUOUS
10
272.6750000000000114
20
-10.
11
241.6749999999999829
21
-10.
0
LINE
8
BLACK
6
CONTINUOUS
10
241.6749999999999829
20
-10.
11
241.6749999999999829
21
6.
0
CIRCLE
8
BLACK
10
242.6749999999999829
20
5.
40
1.
0
CIRCLE
8
BLACK
10
242.6749999999999829
20
-9.
40
1.
0
CIRCLE
8
BLACK
10
271.6750000000000114
20
5.
40
1.
0
CIRCLE
8
BLACK
10
271.6750000000000114
20
-9.
40
1.
0
LINE
8
BLACK
6
CONTINUOUS
10
139.6374999999999886
20
-43.1000000000000014
11
139.6374999999999886
21
-33.1000000000000014
0
LINE
8
BLACK
6
CONTINUOUS
10
140.6374999999999886
20
-32.1000000000000014
11
154.6374999999999886
21
-32.1000000000000014
0
LINE
8
BLACK
6
CONTINUOUS
10
154.6374999999999886
20
-44.1000000000000014
11
140.6374999999999886
21
-44.1000000000000014
0
LINE
8
BLACK
6
CONTINUOUS
10
155.6374999999999886
20
-33.1000000000000014
11
155.6374999999999886
21
-43.1000000000000014
0
ARC
8
BLACK
10
140.6374999999999886
20
-33.1000000000000014
40
1.
50
90.00000000
51
180.00000000
0
ARC
8
BLACK
10
140.6374999999999886
20
-43.1000000000000014
40
1.
50
-180.00000000
51
-90.00000000
0
ARC
8
BLACK
10
154.6375009999999861
20
-33.0999989999999968
40
0.9999990000004999
50
-0.00005730
51
90.00005730
0
ARC
8
BLACK
10
154.6375009999999861
20
-43.1000009999999989
40
0.9999990000004999
50
-90.00005730
51
0.00005730
0
LINE
8
BLACK
6
CONTINUOUS
10
68.2000000000000028
20
-5.
11
68.2000000000000028
21
5.
0
LINE
8
BLACK
6
CONTINUOUS
10
69.2000000000000028
20
6.
11
83.2000000000000028
21
6.
0
LINE
8
BLACK
6
CONTINUOUS
10
83.2000000000000028
20
-6.
11
69.2000000000000028
21
-6.
0
LINE
8
BLACK
6
CONTINUOUS
10
84.2000000000000028
20
5.
11
84.2000000000000028
21
-5.
0
ARC
8
BLACK
10
69.2000000000000028
20
5.
40
1.
50
90.00000000
51
180.00000000
0
ARC
8
BLACK
10
69.2000000000000028
20
-5.
40
1.
50
-180.00000000
51
-90.00000000
0
ARC
8
BLACK
10
83.2000010000000003
20
5.0000010000000001
40
0.9999990000004999
50
-0.00005730
51
90.00005730
0
ARC
8
BLACK
10
83.2000010000000003
20
-5.0000010000000001
40
0.9999990000004999
50
-90.00005730
51
0.00005730
0
LINE
8
BLACK
6
CONTINUOUS
10
101.5374999999999943
20
-43.1000000000000014
11
101.5374999999999943
21
-33.1000000000000014
0
LINE
8
BLACK
6
CONTINUOUS
10
102.5374999999999943
20
-32.1000000000000014
11
116.5374999999999943
21
-32.1000000000000014
0
LINE
8
BLACK
6
CONTINUOUS
10
116.5374999999999943
20
-44.1000000000000014
11
102.5374999999999943
21
-44.1000000000000014
0
LINE
8
BLACK
6
CONTINUOUS
10
117.5374999999999943
20
-33.1000000000000014
11
117.5374999999999943
21
-43.1000000000000014
0
ARC
8
BLACK
10
102.5374999999999943
20
-33.1000000000000014
40
1.
50
90.00000000
51
180.00000000
0
ARC
8
BLACK
10
102.5374999999999943
20
-43.1000000000000014
40
1.
50
-180.00000000
51
-90.00000000
0
ARC
8
BLACK
10
116.5375009999999918
20
-33.0999989999999968
40
0.9999990000004999
50
-0.00005730
51
90.00005730
0
ARC
8
BLACK
10
116.5375009999999918
20
-43.1000009999999989
40
0.9999990000004999
50
-90.00005730
51
0.00005730
0
LINE
8
BLACK
6
CONTINUOUS
10
120.5874999999999915
20
-43.1000000000000014
11
120.5874999999999915
21
-33.1000000000000014
0
LINE
8
BLACK
6
CONTINUOUS
10
121.5874999999999915
20
-32.1000000000000014
11
135.5875000000000057
21
-32.1000000000000014
0
LINE
8
BLACK
6
CONTINUOUS
10
135.5875000000000057
20
-44.1000000000000014
11
121.5874999999999915
21
-44.1000000000000014
0
LINE
8
BLACK
6
CONTINUOUS
10
136.5875000000000057
20
-33.1000000000000014
11
136.5875000000000057
21
-43.1000000000000014
0
ARC
8
BLACK
10
121.5874999999999915
20
-33.1000000000000014
40
1.
50
90.00000000
51
180.00000000
0
ARC
8
BLACK
10
121.5874999999999915
20
-43.1000000000000014
40
1.
50
-180.00000000
51
-90.00000000
0
ARC
8
BLACK
10
135.5875010000000032
20
-33.0999989999999968
40
0.9999990000004999
50
-0.00005730
51
90.00005730
0
ARC
8
BLACK
10
135.5875010000000032
20
-43.1000009999999989
40
0.9999990000004999
50
-90.00005730
51
0.00005730
0
LINE
8
BLACK
6
CONTINUOUS
10
158.6875
20
-43.1000000000000014
11
158.6875
21
-33.1000000000000014
0
LINE
8
BLACK
6
CONTINUOUS
10
159.6875
20
-32.1000000000000014
11
173.6875
21
-32.1000000000000014
0
LINE
8
BLACK
6
CONTINUOUS
10
173.6875
20
-44.1000000000000014
11
159.6875
21
-44.1000000000000014
0
LINE
8
BLACK
6
CONTINUOUS
10
174.6875
20
-33.1000000000000014
11
174.6875
21
-43.1000000000000014
0
ARC
8
BLACK
10
159.6875
20
-33.1000000000000014
40
1.
50
90.00000000
51
180.00000000
0
ARC
8
BLACK
10
159.6875
20
-43.1000000000000014
40
1.
50
-180.00000000
51
-90.00000000
0
ARC
8
BLACK
10
173.6875009999999975
20
-33.0999989999999968
40
0.9999990000004999
50
-0.00005730
51
90.00005730
0
ARC
8
BLACK
10
173.6875009999999975
20
-43.1000009999999989
40
0.9999990000004999
50
-90.00005730
51
0.00005730
0
LINE
8
BLACK
6
CONTINUOUS
10
192.0249999999999773
20
-24.0499999999999972
11
192.0249999999999773
21
-14.0499999999999989
0
LINE
8
BLACK
6
CONTINUOUS
10
193.0249999999999773
20
-13.0499999999999989
11
207.0249999999999773
21
-13.0499999999999989
0
LINE
8
BLACK
6
CONTINUOUS
10
207.0249999999999773
20
-25.0499999999999972
11
193.0249999999999773
21
-25.0499999999999972
0
LINE
8
BLACK
6
CONTINUOUS
10
208.0249999999999773
20
-14.0499999999999989
11
208.0249999999999773
21
-24.0499999999999972
0
ARC
8
BLACK
10
193.0249989999999798
20
-14.0499989999999997
40
0.9999990000004999
50
-270.00005730
51
-179.99994270
0
ARC
8
BLACK
10
193.0249989999999798
20
-24.0500009999999982
40
0.9999990000004999
50
-180.00005730
51
-89.99994270
0
ARC
8
BLACK
10
207.0249999999999773
20
-14.0499999999999989
40
1.
50
0.00000000
51
90.00000000
0
ARC
8
BLACK
10
207.0249999999999773
20
-24.0499999999999972
40
1.
50
-90.00000000
51
-0.00000000
0
LINE
8
BLACK
6
CONTINUOUS
10
125.3499999999999943
20
-5.
11
125.3499999999999943
21
5.
0
LINE
8
BLACK
6
CONTINUOUS
10
126.3499999999999943
20
6.
11
140.3499999999999943
21
6.
0
LINE
8
BLACK
6
CONTINUOUS
10
140.3499999999999943
20
-6.
11
126.3499999999999943
21
-6.
0
LINE
8
BLACK
6
CONTINUOUS
10
141.3499999999999943
20
5.
11
141.3499999999999943
21
-5.
0
ARC
8
BLACK
10
126.3499999999999943
20
5.
40
1.
50
90.00000000
51
180.00000000
0
ARC
8
BLACK
10
126.3499999999999943
20
-5.
40
1.
50
-180.00000000
51
-90.00000000
0
ARC
8
BLACK
10
140.3500009999999918
20
5.0000010000000001
40
0.9999990000004999
50
-0.00005730
51
90.00005730
0
ARC
8
BLACK
10
140.3500009999999918
20
-5.0000010000000001
40
0.9999990000004999
50
-90.00005730
51
0.00005730
0
LINE
8
BLACK
6
CONTINUOUS
10
44.3874999999999957
20
-43.1000000000000014
11
44.3874999999999957
21
-33.1000000000000014
0
LINE
8
BLACK
6
CONTINUOUS
10
45.3874999999999957
20
-32.1000000000000014
11
59.3874999999999957
21
-32.1000000000000014
0
LINE
8
BLACK
6
CONTINUOUS
10
59.3874999999999957
20
-44.1000000000000014
11
45.3874999999999957
21
-44.1000000000000014
0
LINE
8
BLACK
6
CONTINUOUS
10
60.3874999999999957
20
-33.1000000000000014
11
60.3874999999999957
21
-43.1000000000000014
0
ARC
8
BLACK
10
45.3874999999999957
20
-33.1000000000000014
40
1.
50
90.00000000
51
180.00000000
0
ARC
8
BLACK
10
45.3874999999999957
20
-43.1000000000000014
40
1.
50
-180.00000000
51
-90.00000000
0
ARC
8
BLACK
10
59.3875010000000003
20
-33.0999989999999968
40
0.9999990000004999
50
-0.00005730
51
90.00005730
0
ARC
8
BLACK
10
59.3875010000000003
20
-43.1000009999999989
40
0.9999990000004999
50
-90.00005730
51
0.00005730
0
LINE
8
BLACK
6
CONTINUOUS
10
230.125
20
-24.0499999999999972
11
230.125
21
-14.0499999999999989
0
LINE
8
BLACK
6
CONTINUOUS
10
231.125
20
-13.0499999999999989
11
245.125
21
-13.0499999999999989
0
LINE
8
BLACK
6
CONTINUOUS
10
245.125
20
-25.0499999999999972
11
231.125
21
-25.0499999999999972
0
LINE
8
BLACK
6
CONTINUOUS
10
246.125
20
-14.0499999999999989
11
246.125
21
-24.0499999999999972
0
ARC
8
BLACK
10
231.1249990000000025
20
-14.0499989999999997
40
0.9999990000004999
50
-270.00005730
51
-179.99994270
0
ARC
8
BLACK
10
231.1249990000000025
20
-24.0500009999999982
40
0.9999990000004999
50
-180.00005730
51
-89.99994270
0
ARC
8
BLACK
10
245.125
20
-14.0499999999999989
40
1.
50
0.00000000
51
90.00000000
0
ARC
8
BLACK
10
245.125
20
-24.0499999999999972
40
1.
50
-90.00000000
51
-0.00000000
0
LINE
8
BLACK
6
CONTINUOUS
10
53.9124999999999943
20
-62.1500479999999982
11
53.9124999999999943
21
-52.1500479999999982
0
LINE
8
BLACK
6
CONTINUOUS
10
54.9124999999999943
20
-51.1500479999999982
11
68.9124999999999943
21
-51.1500479999999982
0
LINE
8
BLACK
6
CONTINUOUS
10
68.9124999999999943
20
-63.1500479999999982
11
54.9124999999999943
21
-63.1500479999999982
0
LINE
8
BLACK
6
CONTINUOUS
10
69.9124999999999943
20
-52.1500479999999982
11
69.9124999999999943
21
-62.1500479999999982
0
ARC
8
BLACK
10
54.9124999999999943
20
-52.1500479999999982
40
1.
50
90.00000000
51
180.00000000
0
ARC
8
BLACK
10
54.9124999999999943
20
-62.1500479999999982
40
1.
50
-180.00000000
51
-90.00000000
0
ARC
8
BLACK
10
68.9125009999999918
20
-52.1500470000000007
40
0.9999990000004999
50
-0.00005730
51
90.00005730
0
ARC
8
BLACK
10
68.9125009999999918
20
-62.1500489999999957
40
0.9999990000004999
50
-90.00005730
51
0.00005730
0
LINE
8
BLACK
6
CONTINUOUS
10
96.7749999999999915
20
-24.0499999999999972
11
96.7749999999999915
21
-14.0499999999999989
0
LINE
8
BLACK
6
CONTINUOUS
10
97.7749999999999915
20
-13.0499999999999989
11
111.7749999999999915
21
-13.0499999999999989
0
LINE
8
BLACK
6
CONTINUOUS
10
111.7749999999999915
20
-25.0499999999999972
11
97.7749999999999915
21
-25.0499999999999972
0
LINE
8
BLACK
6
CONTINUOUS
10
112.7749999999999915
20
-14.0499999999999989
11
112.7749999999999915
21
-24.0499999999999972
0
ARC
8
BLACK
10
97.774998999999994
20
-14.0499989999999997
40
0.9999990000004999
50
-270.00005730
51
-179.99994270
0
ARC
8
BLACK
10
97.774998999999994
20
-24.0500009999999982
40
0.9999990000004999
50
-180.00005730
51
-89.99994270
0
ARC
8
BLACK
10
111.7749999999999915
20
-14.0499999999999989
40
1.
50
0.00000000
51
90.00000000
0
ARC
8
BLACK
10
111.7749999999999915
20
-24.0499999999999972
40
1.
50
-90.00000000
51
-0.00000000
0
LINE
8
BLACK
6
CONTINUOUS
10
-8.
20
-5.
11
-8.
21
5.
0
LINE
8
BLACK
6
CONTINUOUS
10
-7.
20
6.
11
7.
21
6.
0
LINE
8
BLACK
6
CONTINUOUS
10
7.
20
-6.
11
-7.
21
-6.
0
LINE
8
BLACK
6
CONTINUOUS
10
8.
20
5.
11
8.
21
-5.
0
ARC
8
BLACK
10
-7.
20
5.
40
1.
50
90.00000000
51
180.00000000
0
ARC
8
BLACK
10
-7.
20
-5.
40
1.
50
-180.00000000
51
-90.00000000
0
ARC
8
BLACK
10
7.0000009999999993
20
5.0000010000000001
40
0.9999990000004999
50
-0.00005730
51
90.00005730
0
ARC
8
BLACK
10
7.0000009999999993
20
-5.0000010000000001
40
0.9999990000004999
50
-90.00005730
51
0.00005730
0
LINE
8
BLACK
6
CONTINUOUS
10
58.6749999999999972
20
-24.0499999999999972
11
58.6749999999999972
21
-14.0499999999999989
0
LINE
8
BLACK
6
CONTINUOUS
10
59.6749999999999972
20
-13.0499999999999989
11
73.6749999999999972
21
-13.0499999999999989
0
LINE
8
BLACK
6
CONTINUOUS
10
73.6749999999999972
20
-25.0499999999999972
11
59.6749999999999972
21
-25.0499999999999972
0
LINE
8
BLACK
6
CONTINUOUS
10
74.6749999999999972
20
-14.0499999999999989
11
74.6749999999999972
21
-24.0499999999999972
0
ARC
8
BLACK
10
59.6749989999999997
20
-14.0499989999999997
40
0.9999990000004999
50
-270.00005730
51
-179.99994270
0
ARC
8
BLACK
10
59.6749989999999997
20
-24.0500009999999982
40
0.9999990000004999
50
-180.00005730
51
-89.99994270
0
ARC
8
BLACK
10
73.6749999999999972
20
-14.0499999999999989
40
1.
50
0.00000000
51
90.00000000
0
ARC
8
BLACK
10
73.6749999999999972
20
-24.0499999999999972
40
1.
50
-90.00000000
51
-0.00000000
0
LINE
8
BLACK
6
CONTINUOUS
10
18.1937499999999979
20
-81.2000000000000028
11
18.1937499999999979
21
-71.2000000000000028
0
LINE
8
BLACK
6
CONTINUOUS
10
19.1937499999999979
20
-70.2000000000000028
11
33.1937500000000014
21
-70.2000000000000028
0
LINE
8
BLACK
6
CONTINUOUS
10
33.1937500000000014
20
-82.2000000000000028
11
19.1937499999999979
21
-82.2000000000000028
0
LINE
8
BLACK
6
CONTINUOUS
10
34.1937500000000014
20
-71.2000000000000028
11
34.1937500000000014
21
-81.2000000000000028
0
ARC
8
BLACK
10
19.1937490000000004
20
-71.1999989999999912
40
0.9999990000004999
50
-270.00005730
51
-179.99994270
0
ARC
8
BLACK
10
19.1937490000000004
20
-81.2000010000000003
40
0.9999990000004999
50
-180.00005730
51
-89.99994270
0
ARC
8
BLACK
10
33.1937500000000014
20
-71.2000000000000028
40
1.
50
0.00000000
51
90.00000000
0
ARC
8
BLACK
10
33.1937500000000014
20
-81.2000000000000028
40
1.
50
-90.00000000
51
-0.00000000
0
LINE
8
BLACK
6
CONTINUOUS
10
168.2125000000000057
20
-62.1499999999999986
11
168.2125000000000057
21
-52.1499999999999986
0
LINE
8
BLACK
6
CONTINUOUS
10
169.2125000000000057
20
-51.1499999999999986
11
183.2125000000000057
21
-51.1499999999999986
0
LINE
8
BLACK
6
CONTINUOUS
10
183.2125000000000057
20
-63.1499999999999986
11
169.2125000000000057
21
-63.1499999999999986
0
LINE
8
BLACK
6
CONTINUOUS
10
184.2125000000000057
20
-52.1499999999999986
11
184.2125000000000057
21
-62.1499999999999986
0
ARC
8
BLACK
10
169.2125000000000057
20
-52.1499999999999986
40
1.
50
90.00000000
51
180.00000000
0
ARC
8
BLACK
10
169.2125000000000057
20
-62.1499999999999986
40
1.
50
-180.00000000
51
-90.00000000
0
ARC
8
BLACK
10
183.2125010000000032
20
-52.1499990000000011
40
0.9999990000004999
50
-0.00005730
51
90.00005730
0
ARC
8
BLACK
10
183.2125010000000032
20
-62.1500009999999961
40
0.9999990000004999
50
-90.00005730
51
0.00005730
0
LINE
8
BLACK
6
CONTINUOUS
10
149.1624999999999943
20
-62.1500479999999982
11
149.1624999999999943
21
-52.1500479999999982
0
LINE
8
BLACK
6
CONTINUOUS
10
150.1624999999999943
20
-51.1500479999999982
11
164.1624999999999943
21
-51.1500479999999982
0
LINE
8
BLACK
6
CONTINUOUS
10
164.1624999999999943
20
-63.1500479999999982
11
150.1624999999999943
21
-63.1500479999999982
0
LINE
8
BLACK
6
CONTINUOUS
10
165.1624999999999943
20
-52.1500479999999982
11
165.1624999999999943
21
-62.1500479999999982
0
ARC
8
BLACK
10
150.1624999999999943
20
-52.1500479999999982
40
1.
50
90.00000000
51
180.00000000
0
ARC
8
BLACK
10
150.1624999999999943
20
-62.1500479999999982
40
1.
50
-180.00000000
51
-90.00000000
0
ARC
8
BLACK
10
164.1625009999999918
20
-52.1500470000000007
40
0.9999990000004999
50
-0.00005730
51
90.00005730
0
ARC
8
BLACK
10
164.1625009999999918
20
-62.1500489999999957
40
0.9999990000004999
50
-90.00005730
51
0.00005730
0
LINE
8
BLACK
6
CONTINUOUS
10
163.4499999999999886
20
-81.2000000000000028
11
163.4499999999999886
21
-71.2000000000000028
0
LINE
8
BLACK
6
CONTINUOUS
10
164.4499999999999886
20
-70.2000000000000028
11
178.4499999999999886
21
-70.2000000000000028
0
LINE
8
BLACK
6
CONTINUOUS
10
178.4499999999999886
20
-82.2000000000000028
11
164.4499999999999886
21
-82.2000000000000028
0
LINE
8
BLACK
6
CONTINUOUS
10
179.4499999999999886
20
-71.2000000000000028
11
179.4499999999999886
21
-81.2000000000000028
0
ARC
8
BLACK
10
164.4499989999999912
20
-71.1999989999999912
40
0.9999990000004999
50
-270.00005730
51
-179.99994270
0
ARC
8
BLACK
10
164.4499989999999912
20
-81.2000010000000003
40
0.9999990000004999
50
-180.00005730
51
-89.99994270
0
ARC
8
BLACK
10
178.4499999999999886
20
-71.2000000000000028
40
1.
50
0.00000000
51
90.00000000
0
ARC
8
BLACK
10
178.4499999999999886
20
-81.2000000000000028
40
1.
50
-90.00000000
51
-0.00000000
0
LINE
8
BLACK
6
CONTINUOUS
10
249.1752159999999776
20
-81.2000000000000028
11
249.1752159999999776
21
-71.2000000000000028
0
LINE
8
BLACK
6
CONTINUOUS
10
250.1752159999999776
20
-70.2000000000000028
11
264.1752159999999776
21
-70.2000000000000028
0
LINE
8
BLACK
6
CONTINUOUS
10
264.1752159999999776
20
-82.2000000000000028
11
250.1752159999999776
21
-82.2000000000000028
0
LINE
8
BLACK
6
CONTINUOUS
10
265.1752159999999776
20
-71.2000000000000028
11
265.1752159999999776
21
-81.2000000000000028
0
ARC
8
BLACK
10
250.1752149999999801
20
-71.1999989999999912
40
0.9999990000004999
50
-270.00005730
51
-179.99994270
0
ARC
8
BLACK
10
250.1752149999999801
20
-81.2000010000000003
40
0.9999990000004999
50
-180.00005730
51
-89.99994270
0
ARC
8
BLACK
10
264.1752159999999776
20
-71.2000000000000028
40
1.
50
0.00000000
51
90.00000000
0
ARC
8
BLACK
10
264.1752159999999776
20
-81.2000000000000028
40
1.
50
-90.00000000
51
-0.00000000
0
CIRCLE
8
BLACK
10
250.9024000000000001
20
-18.7020499999999998
40
2.1999999999999997
0
CIRCLE
8
BLACK
10
250.9024000000000001
20
-18.7020499999999998
40
3.1999999999999997
0
LINE
8
BLACK
6
CONTINUOUS
10
111.0625
20
-62.1499999999999986
11
111.0625
21
-52.1499999999999986
0
LINE
8
BLACK
6
CONTINUOUS
10
112.0625
20
-51.1499999999999986
11
126.0625
21
-51.1499999999999986
0
LINE
8
BLACK
6
CONTINUOUS
10
126.0625
20
-63.1499999999999986
11
112.0625
21
-63.1499999999999986
0
LINE
8
BLACK
6
CONTINUOUS
10
127.0625
20
-52.1499999999999986
11
127.0625
21
-62.1499999999999986
0
ARC
8
BLACK
10
112.0625
20
-52.1499999999999986
40
1.
50
90.00000000
51
180.00000000
0
ARC
8
BLACK
10
112.0625
20
-62.1499999999999986
40
1.
50
-180.00000000
51
-90.00000000
0
ARC
8
BLACK
10
126.0625009999999975
20
-52.1499990000000011
40
0.9999990000004999
50
-0.00005730
51
90.00005730
0
ARC
8
BLACK
10
126.0625009999999975
20
-62.1500009999999961
40
0.9999990000004999
50
-90.00005730
51
0.00005730
0
LINE
8
BLACK
6
CONTINUOUS
10
106.2999999999999972
20
-5.
11
106.2999999999999972
21
5.
0
LINE
8
BLACK
6
CONTINUOUS
10
107.2999999999999972
20
6.
11
121.2999999999999972
21
6.
0
LINE
8
BLACK
6
CONTINUOUS
10
121.2999999999999972
20
-6.
11
107.2999999999999972
21
-6.
0
LINE
8
BLACK
6
CONTINUOUS
10
122.2999999999999972
20
5.
11
122.2999999999999972
21
-5.
0
ARC
8
BLACK
10
107.2999999999999972
20
5.
40
1.
50
90.00000000
51
180.00000000
0
ARC
8
BLACK
10
107.2999999999999972
20
-5.
40
1.
50
-180.00000000
51
-90.00000000
0
ARC
8
BLACK
10
121.3000009999999946
20
5.0000010000000001
40
0.9999990000004999
50
-0.00005730
51
90.00005730
0
ARC
8
BLACK
10
121.3000009999999946
20
-5.0000010000000001
40
0.9999990000004999
50
-90.00005730
51
0.00005730
0
LINE
8
BLACK
6
CONTINUOUS
10
187.2624999999999886
20
-62.1499999999999986
11
187.2624999999999886
21
-52.1499999999999986
0
LINE
8
BLACK
6
CONTINUOUS
10
188.2624999999999886
20
-51.1499999999999986
11
202.2624999999999886
21
-51.1499999999999986
0
LINE
8
BLACK
6
CONTINUOUS
10
202.2624999999999886
20
-63.1499999999999986
11
188.2624999999999886
21
-63.1499999999999986
0
LINE
8
BLACK
6
CONTINUOUS
10
203.2624999999999886
20
-52.1499999999999986
11
203.2624999999999886
21
-62.1499999999999986
0
ARC
8
BLACK
10
188.2624999999999886
20
-52.1499999999999986
40
1.
50
90.00000000
51
180.00000000
0
ARC
8
BLACK
10
188.2624999999999886
20
-62.1499999999999986
40
1.
50
-180.00000000
51
-90.00000000
0
ARC
8
BLACK
10
202.2625009999999861
20
-52.1499990000000011
40
0.9999990000004999
50
-0.00005730
51
90.00005730
0
ARC
8
BLACK
10
202.2625009999999861
20
-62.1500009999999961
40
0.9999990000004999
50
-90.00005730
51
0.00005730
0
LINE
8
BLACK
6
CONTINUOUS
10
211.0751839999999788
20
-81.2000639999999976
11
211.0751839999999788
21
-71.2000639999999976
0
LINE
8
BLACK
6
CONTINUOUS
10
212.0751839999999788
20
-70.2000639999999976
11
226.0751839999999788
21
-70.2000639999999976
0
LINE
8
BLACK
6
CONTINUOUS
10
226.0751839999999788
20
-82.2000639999999976
11
212.0751839999999788
21
-82.2000639999999976
0
LINE
8
BLACK
6
CONTINUOUS
10
227.0751839999999788
20
-71.2000639999999976
11
227.0751839999999788
21
-81.2000639999999976
0
ARC
8
BLACK
10
212.0751829999999813
20
-71.2000630000000001
40
0.9999990000004999
50
-270.00005730
51
-179.99994270
0
ARC
8
BLACK
10
212.0751829999999813
20
-81.2000649999999951
40
0.9999990000004999
50
-180.00005730
51
-89.99994270
0
ARC
8
BLACK
10
226.0751839999999788
20
-71.2000639999999976
40
1.
50
0.00000000
51
90.00000000
0
ARC
8
BLACK
10
226.0751839999999788
20
-81.2000639999999976
40
1.
50
-90.00000000
51
-0.00000000
0
LINE
8
BLACK
6
CONTINUOUS
10
82.4874999999999972
20
-43.1000000000000014
11
82.4874999999999972
21
-33.1000000000000014
0
LINE
8
BLACK
6
CONTINUOUS
10
83.4874999999999972
20
-32.1000000000000014
11
97.4874999999999972
21
-32.1000000000000014
0
LINE
8
BLACK
6
CONTINUOUS
10
97.4874999999999972
20
-44.1000000000000014
11
83.4874999999999972
21
-44.1000000000000014
0
LINE
8
BLACK
6
CONTINUOUS
10
98.4874999999999972
20
-33.1000000000000014
11
98.4874999999999972
21
-43.1000000000000014
0
ARC
8
BLACK
10
83.4874999999999972
20
-33.1000000000000014
40
1.
50
90.00000000
51
180.00000000
0
ARC
8
BLACK
10
83.4874999999999972
20
-43.1000000000000014
40
1.
50
-180.00000000
51
-90.00000000
0
ARC
8
BLACK
10
97.4875009999999946
20
-33.0999989999999968
40
0.9999990000004999
50
-0.00005730
51
90.00005730
0
ARC
8
BLACK
10
97.4875009999999946
20
-43.1000009999999989
40
0.9999990000004999
50
-90.00005730
51
0.00005730
0
LINE
8
BLACK
6
CONTINUOUS
10
92.0125000000000028
20
-62.1500479999999982
11
92.0125000000000028
21
-52.1500479999999982
0
LINE
8
BLACK
6
CONTINUOUS
10
93.0125000000000028
20
-51.1500479999999982
11
107.0124999999999886
21
-51.1500479999999982
0
LINE
8
BLACK
6
CONTINUOUS
10
107.0124999999999886
20
-63.1500479999999982
11
93.0125000000000028
21
-63.1500479999999982
0
LINE
8
BLACK
6
CONTINUOUS
10
108.0124999999999886
20
-52.1500479999999982
11
108.0124999999999886
21
-62.1500479999999982
0
ARC
8
BLACK
10
93.0125000000000028
20
-52.1500479999999982
40
1.
50
90.00000000
51
180.00000000
0
ARC
8
BLACK
10
93.0125000000000028
20
-62.1500479999999982
40
1.
50
-180.00000000
51
-90.00000000
0
ARC
8
BLACK
10
107.0125010000000003
20
-52.1500470000000007
40
0.9999990000004999
50
-0.00005730
51
90.00005730
0
ARC
8
BLACK
10
107.0125010000000003
20
-62.1500489999999957
40
0.9999990000004999
50
-90.00005730
51
0.00005730
0
LINE
8
BLACK
6
CONTINUOUS
10
-5.6187499999999995
20
-81.2000000000000028
11
-5.6187499999999995
21
-71.2000000000000028
0
LINE
8
BLACK
6
CONTINUOUS
10
-4.6187499999999995
20
-70.2000000000000028
11
9.3812499999999996
21
-70.2000000000000028
0
LINE
8
BLACK
6
CONTINUOUS
10
9.3812499999999996
20
-82.2000000000000028
11
-4.6187499999999995
21
-82.2000000000000028
0
LINE
8
BLACK
6
CONTINUOUS
10
10.3812499999999996
20
-71.2000000000000028
11
10.3812499999999996
21
-81.2000000000000028
0
ARC
8
BLACK
10
-4.6187509999999996
20
-71.1999989999999912
40
0.9999990000004999
50
-270.00005730
51
-179.99994270
0
ARC
8
BLACK
10
-4.6187509999999996
20
-81.2000010000000003
40
0.9999990000004999
50
-180.00005730
51
-89.99994270
0
ARC
8
BLACK
10
9.3812499999999996
20
-71.2000000000000028
40
1.
50
0.00000000
51
90.00000000
0
ARC
8
BLACK
10
9.3812499999999996
20
-81.2000000000000028
40
1.
50
-90.00000000
51
-0.00000000
  0
ENDSEC
  0
EOF
